<svg viewBox="0 0 240 320" xmlns="http://www.w3.org/2000/svg"><rect x="0" y="0" width="240" height="320" fill="#020202"/><g transform="translate(120 160) scale(0.92) translate(-120 -160)"><path d="M115.71 10A4.29 4.29 0 0 0 120 14.29M120 14.29A4.29 4.29 0 0 0 124.29 10M235.71 10A4.29 4.29 0 0 0 240 14.29M0 125.71A4.29 4.29 0 0 1 4.29 130M4.29 130A4.29 4.29 0 0 1 0 134.29M240 125.71A4.29 4.29 0 0 0 235.71 130M235.71 130A4.29 4.29 0 0 0 240 134.29M0 245.71A4.29 4.29 0 0 1 4.29 250M4.29 250A4.29 4.29 0 0 1 0 254.29M60 125.71A4.29 4.29 0 0 1 64.29 130M124.29 70A4.29 4.29 0 0 1 120 74.29M115.71 190A4.29 4.29 0 0 1 120 185.71M180 134.29A4.29 4.29 0 0 1 175.71 130M115.71 250A4.29 4.29 0 0 1 120 245.71M120 245.71A4.29 4.29 0 0 1 124.29 250M124.29 250A4.29 4.29 0 0 1 120 254.29M120 254.29A4.29 4.29 0 0 1 115.71 250" fill="none" stroke="#e4e4e4" stroke-width="4.29"/><path d="M4.29 10A4.29 4.29 0 0 1 0 14.29M240 245.71A4.29 4.29 0 0 0 235.71 250M235.71 250A4.29 4.29 0 0 0 240 254.29" fill="none" stroke="#6bbed9" stroke-width="4.29"/><path d="M107.14 10A12.86 12.86 0 0 0 120 22.86M120 22.86A12.86 12.86 0 0 0 132.86 10M227.14 10A12.86 12.86 0 0 0 240 22.86M0 117.14A12.86 12.86 0 0 1 12.86 130M12.86 130A12.86 12.86 0 0 1 0 142.86M240 117.14A12.86 12.86 0 0 0 227.14 130M227.14 130A12.86 12.86 0 0 0 240 142.86M0 237.14A12.86 12.86 0 0 1 12.86 250M12.86 250A12.86 12.86 0 0 1 0 262.86M60 117.14A12.86 12.86 0 0 1 72.86 130M132.86 70A12.86 12.86 0 0 1 120 82.86M107.14 190A12.86 12.86 0 0 1 120 177.14M180 142.86A12.86 12.86 0 0 1 167.14 130M107.14 250A12.86 12.86 0 0 1 120 237.14M120 237.14A12.86 12.86 0 0 1 132.86 250M132.86 250A12.86 12.86 0 0 1 120 262.86M120 262.86A12.86 12.86 0 0 1 107.14 250" fill="none" stroke="#e4e4e4" stroke-width="4.29"/><path d="M12.86 10A12.86 12.86 0 0 1 0 22.86M240 237.14A12.86 12.86 0 0 0 227.14 250M227.14 250A12.86 12.86 0 0 0 240 262.86" fill="none" stroke="#6bbed9" stroke-width="4.29"/><path d="M98.57 10A21.43 21.43 0 0 0 120 31.43M120 31.43A21.43 21.43 0 0 0 141.43 10M218.57 10A21.43 21.43 0 0 0 240 31.43M0 108.57A21.43 21.43 0 0 1 21.43 130M21.43 130A21.43 21.43 0 0 1 0 151.43M240 108.57A21.43 21.43 0 0 0 218.57 130M218.57 130A21.43 21.43 0 0 0 240 151.43M0 228.57A21.43 21.43 0 0 1 21.43 250M21.43 250A21.43 21.43 0 0 1 0 271.43M60 108.57A21.43 21.43 0 0 1 81.43 130M141.43 70A21.43 21.43 0 0 1 120 91.43M98.57 190A21.43 21.43 0 0 1 120 168.57M180 151.43A21.43 21.43 0 0 1 158.57 130M98.57 250A21.43 21.43 0 0 1 120 228.57M120 228.57A21.43 21.43 0 0 1 141.43 250M141.43 250A21.43 21.43 0 0 1 120 271.43M120 271.43A21.43 21.43 0 0 1 98.57 250" fill="none" stroke="#e4e4e4" stroke-width="4.29"/><path d="M21.43 10A21.43 21.43 0 0 1 0 31.43M240 228.57A21.43 21.43 0 0 0 218.57 250M218.57 250A21.43 21.43 0 0 0 240 271.43" fill="none" stroke="#6bbed9" stroke-width="4.29"/><path d="M90 10A30 30 0 0 0 120 40M120 40A30 30 0 0 0 150 10M210 10A30 30 0 0 0 240 40M0 100A30 30 0 0 1 30 130M30 130A30 30 0 0 1 0 160M240 100A30 30 0 0 0 210 130M210 130A30 30 0 0 0 240 160M0 220A30 30 0 0 1 30 250M30 250A30 30 0 0 1 0 280M60 100A30 30 0 0 1 90 130M150 70A30 30 0 0 1 120 100M90 190A30 30 0 0 1 120 160M180 160A30 30 0 0 1 150 130M90 250A30 30 0 0 1 120 220M120 220A30 30 0 0 1 150 250M150 250A30 30 0 0 1 120 280M120 280A30 30 0 0 1 90 250" fill="none" stroke="#e4e4e4" stroke-width="4.29"/><path d="M30 10A30 30 0 0 1 0 40M240 220A30 30 0 0 0 210 250M210 250A30 30 0 0 0 240 280" fill="none" stroke="#6bbed9" stroke-width="4.29"/><path d="M81.43 10A38.57 38.57 0 0 0 120 48.57M120 48.57A38.57 38.57 0 0 0 158.57 10M201.43 10A38.57 38.57 0 0 0 240 48.57M0 91.43A38.57 38.57 0 0 1 38.57 130M38.57 130A38.57 38.57 0 0 1 0 168.57M240 91.43A38.57 38.57 0 0 0 201.43 130M201.43 130A38.57 38.57 0 0 0 240 168.57M0 211.43A38.57 38.57 0 0 1 38.57 250M38.57 250A38.57 38.57 0 0 1 0 288.57M60 91.43A38.57 38.57 0 0 1 98.57 130M158.57 70A38.57 38.57 0 0 1 120 108.57M81.43 190A38.57 38.57 0 0 1 120 151.43M180 168.57A38.57 38.57 0 0 1 141.43 130M81.43 250A38.57 38.57 0 0 1 120 211.43M120 211.43A38.57 38.57 0 0 1 158.57 250M158.57 250A38.57 38.57 0 0 1 120 288.57M120 288.57A38.57 38.57 0 0 1 81.43 250" fill="none" stroke="#e4e4e4" stroke-width="4.29"/><path d="M38.57 10A38.57 38.57 0 0 1 0 48.57M240 211.43A38.57 38.57 0 0 0 201.43 250M201.43 250A38.57 38.57 0 0 0 240 288.57" fill="none" stroke="#6bbed9" stroke-width="4.29"/><path d="M72.86 10A47.14 47.14 0 0 0 120 57.14M120 57.14A47.14 47.14 0 0 0 167.14 10M192.86 10A47.14 47.14 0 0 0 240 57.14M0 82.86A47.14 47.14 0 0 1 47.14 130M47.14 130A47.14 47.14 0 0 1 0 177.14M240 82.86A47.14 47.14 0 0 0 192.86 130M192.86 130A47.14 47.14 0 0 0 240 177.14M0 202.86A47.14 47.14 0 0 1 47.14 250M47.14 250A47.14 47.14 0 0 1 0 297.14M60 82.86A47.14 47.14 0 0 1 107.14 130M167.14 70A47.14 47.14 0 0 1 120 117.14M72.86 190A47.14 47.14 0 0 1 120 142.86M180 177.14A47.14 47.14 0 0 1 132.86 130M72.86 250A47.14 47.14 0 0 1 120 202.86M120 202.86A47.14 47.14 0 0 1 167.14 250M167.14 250A47.14 47.14 0 0 1 120 297.14M120 297.14A47.14 47.14 0 0 1 72.86 250" fill="none" stroke="#e4e4e4" stroke-width="4.29"/><path d="M47.14 10A47.14 47.14 0 0 1 0 57.14M240 202.86A47.14 47.14 0 0 0 192.86 250M192.86 250A47.14 47.14 0 0 0 240 297.14" fill="none" stroke="#6bbed9" stroke-width="4.29"/><path d="M64.29 10A55.71 55.71 0 0 0 120 65.71M120 65.71A55.71 55.71 0 0 0 175.71 10M184.29 10A55.71 55.71 0 0 0 240 65.71M0 74.29A55.71 55.71 0 0 1 55.71 130M55.71 130A55.71 55.71 0 0 1 0 185.71M240 74.29A55.71 55.71 0 0 0 184.29 130M184.29 130A55.71 55.71 0 0 0 240 185.71M0 194.29A55.71 55.71 0 0 1 55.71 250M55.71 250A55.71 55.71 0 0 1 0 305.71M60 74.29A55.71 55.71 0 0 1 115.71 130M175.71 70A55.71 55.71 0 0 1 120 125.71M64.29 190A55.71 55.71 0 0 1 120 134.29M180 185.71A55.71 55.71 0 0 1 124.29 130M64.29 250A55.71 55.71 0 0 1 120 194.29M120 194.29A55.71 55.71 0 0 1 175.71 250M175.71 250A55.71 55.71 0 0 1 120 305.71M120 305.71A55.71 55.71 0 0 1 64.29 250" fill="none" stroke="#e4e4e4" stroke-width="4.29"/><path d="M55.71 10A55.71 55.71 0 0 1 0 65.71M240 194.29A55.71 55.71 0 0 0 184.29 250M184.29 250A55.71 55.71 0 0 0 240 305.71" fill="none" stroke="#6bbed9" stroke-width="4.29"/></g></svg>