<svg viewBox="0 0 240 320" xmlns="http://www.w3.org/2000/svg"><rect x="0" y="0" width="240" height="320" fill="#020202"/><rect x="0" y="16" width="12" height="12" fill="#b7e9ff" opacity="0.25"/><rect x="0" y="28" width="12" height="12" fill="#b7e9ff" opacity="0.25"/><rect x="0" y="124" width="12" height="12" fill="#b7e9ff" opacity="0.25"/><rect x="0" y="136" width="12" height="12" fill="#b7e9ff" opacity="0.25"/><rect x="0" y="160" width="12" height="12" fill="#b7e9ff" opacity="0.25"/><rect x="0" y="184" width="12" height="12" fill="#b7e9ff" opacity="0.25"/><rect x="0" y="196" width="12" height="12" fill="#b7e9ff" opacity="0.25"/><rect x="0" y="208" width="12" height="12" fill="#b7e9ff" opacity="0.25"/><rect x="0" y="232" width="12" height="12" fill="#b7e9ff" opacity="0.25"/><rect x="0" y="256" width="12" height="12" fill="#b7e9ff" opacity="0.25"/><rect x="0" y="280" width="12" height="12" fill="#b7e9ff" opacity="0.25"/><rect x="0" y="292" width="12" height="12" fill="#b7e9ff" opacity="0.25"/><rect x="12" y="16" width="12" height="12" fill="#b7e9ff" opacity="0.25"/><rect x="12" y="28" width="12" height="12" fill="#b7e9ff" opacity="0.25"/><rect x="12" y="124" width="12" height="12" fill="#b7e9ff" opacity="0.25"/><rect x="12" y="136" width="12" height="12" fill="#b7e9ff" opacity="0.25"/><rect x="12" y="160" width="12" height="12" fill="#b7e9ff" opacity="0.25"/><rect x="12" y="184" width="12" height="12" fill="#b7e9ff" opacity="0.25"/><rect x="12" y="196" width="12" height="12" fill="#b7e9ff" opacity="0.25"/><rect x="12" y="208" width="12" height="12" fill="#b7e9ff" opacity="0.25"/><rect x="12" y="232" width="12" height="12" fill="#b7e9ff" opacity="0.25"/><rect x="12" y="256" width="12" height="12" fill="#b7e9ff" opacity="0.25"/><rect x="12" y="280" width="12" height="12" fill="#b7e9ff" opacity="0.25"/><rect x="12" y="292" width="12" height="12" fill="#b7e9ff" opacity="0.25"/><rect x="24" y="16" width="12" height="12" fill="#b7e9ff" opacity="0.25"/><rect x="24" y="28" width="12" height="12" fill="#b7e9ff" opacity="0.25"/><rect x="24" y="124" width="12" height="12" fill="#b7e9ff" opacity="0.25"/><rect x="24" y="136" width="12" height="12" fill="#b7e9ff" opacity="0.25"/><rect x="24" y="160" width="12" height="12" fill="#b7e9ff" opacity="0.25"/><rect x="24" y="184" width="12" height="12" fill="#b7e9ff" opacity="0.25"/><rect x="24" y="196" width="12" height="12" fill="#b7e9ff" opacity="0.25"/><rect x="24" y="208" width="12" height="12" fill="#b7e9ff" opacity="0.25"/><rect x="24" y="232" width="12" height="12" fill="#b7e9ff" opacity="0.25"/><rect x="24" y="256" width="12" height="12" fill="#b7e9ff" opacity="0.25"/><rect x="24" y="280" width="12" height="12" fill="#b7e9ff" opacity="0.25"/><rect x="24" y="292" width="12" height="12" fill="#b7e9ff" opacity="0.25"/><rect x="36" y="4" width="12" height="12" fill="#b7e9ff" opacity="0.25"/><rect x="36" y="40" width="12" height="12" fill="#b7e9ff" opacity="0.25"/><rect x="36" y="52" width="12" height="12" fill="#b7e9ff" opacity="0.25"/><rect x="36" y="64" width="12" height="12" fill="#b7e9ff" opacity="0.25"/><rect x="36" y="76" width="12" height="12" fill="#b7e9ff" opacity="0.25"/><rect x="36" y="88" width="12" height="12" fill="#b7e9ff" opacity="0.25"/><rect x="36" y="100" width="12" height="12" fill="#b7e9ff" opacity="0.25"/><rect x="36" y="112" width="12" height="12" fill="#b7e9ff" opacity="0.25"/><rect x="36" y="148" width="12" height="12" fill="#b7e9ff" opacity="0.25"/><rect x="36" y="172" width="12" height="12" fill="#b7e9ff" opacity="0.25"/><rect x="36" y="220" width="12" height="12" fill="#b7e9ff" opacity="0.25"/><rect x="36" y="244" width="12" height="12" fill="#b7e9ff" opacity="0.25"/><rect x="36" y="268" width="12" height="12" fill="#b7e9ff" opacity="0.25"/><rect x="36" y="304" width="12" height="12" fill="#b7e9ff" opacity="0.25"/><rect x="48" y="4" width="12" height="12" fill="#b7e9ff" opacity="0.25"/><rect x="48" y="40" width="12" height="12" fill="#b7e9ff" opacity="0.25"/><rect x="48" y="52" width="12" height="12" fill="#b7e9ff" opacity="0.25"/><rect x="48" y="64" width="12" height="12" fill="#b7e9ff" opacity="0.25"/><rect x="48" y="76" width="12" height="12" fill="#b7e9ff" opacity="0.25"/><rect x="48" y="88" width="12" height="12" fill="#b7e9ff" opacity="0.25"/><rect x="48" y="100" width="12" height="12" fill="#b7e9ff" opacity="0.25"/><rect x="48" y="112" width="12" height="12" fill="#b7e9ff" opacity="0.25"/><rect x="48" y="148" width="12" height="12" fill="#b7e9ff" opacity="0.25"/><rect x="48" y="172" width="12" height="12" fill="#b7e9ff" opacity="0.25"/><rect x="48" y="220" width="12" height="12" fill="#b7e9ff" opacity="0.25"/><rect x="48" y="244" width="12" height="12" fill="#b7e9ff" opacity="0.25"/><rect x="48" y="268" width="12" height="12" fill="#b7e9ff" opacity="0.25"/><rect x="48" y="304" width="12" height="12" fill="#b7e9ff" opacity="0.25"/><rect x="60" y="16" width="12" height="12" fill="#b7e9ff" opacity="0.25"/><rect x="60" y="28" width="12" height="12" fill="#b7e9ff" opacity="0.25"/><rect x="60" y="124" width="12" height="12" fill="#b7e9ff" opacity="0.25"/><rect x="60" y="136" width="12" height="12" fill="#b7e9ff" opacity="0.25"/><rect x="60" y="160" width="12" height="12" fill="#b7e9ff" opacity="0.25"/><rect x="60" y="184" width="12" height="12" fill="#b7e9ff" opacity="0.25"/><rect x="60" y="196" width="12" height="12" fill="#b7e9ff" opacity="0.25"/><rect x="60" y="208" width="12" height="12" fill="#b7e9ff" opacity="0.25"/><rect x="60" y="232" width="12" height="12" fill="#b7e9ff" opacity="0.25"/><rect x="60" y="256" width="12" height="12" fill="#b7e9ff" opacity="0.25"/><rect x="60" y="280" width="12" height="12" fill="#b7e9ff" opacity="0.25"/><rect x="60" y="292" width="12" height="12" fill="#b7e9ff" opacity="0.25"/><rect x="72" y="16" width="12" height="12" fill="#b7e9ff" opacity="0.25"/><rect x="72" y="28" width="12" height="12" fill="#b7e9ff" opacity="0.25"/><rect x="72" y="124" width="12" height="12" fill="#b7e9ff" opacity="0.25"/><rect x="72" y="136" width="12" height="12" fill="#b7e9ff" opacity="0.25"/><rect x="72" y="160" width="12" height="12" fill="#b7e9ff" opacity="0.25"/><rect x="72" y="184" width="12" height="12" fill="#b7e9ff" opacity="0.25"/><rect x="72" y="196" width="12" height="12" fill="#b7e9ff" opacity="0.25"/><rect x="72" y="208" width="12" height="12" fill="#b7e9ff" opacity="0.25"/><rect x="72" y="232" width="12" height="12" fill="#b7e9ff" opacity="0.25"/><rect x="72" y="256" width="12" height="12" fill="#b7e9ff" opacity="0.25"/><rect x="72" y="280" width="12" height="12" fill="#b7e9ff" opacity="0.25"/><rect x="72" y="292" width="12" height="12" fill="#b7e9ff" opacity="0.25"/><rect x="84" y="16" width="12" height="12" fill="#b7e9ff" opacity="0.25"/><rect x="84" y="28" width="12" height="12" fill="#b7e9ff" opacity="0.25"/><rect x="84" y="124" width="12" height="12" fill="#b7e9ff" opacity="0.25"/><rect x="84" y="136" width="12" height="12" fill="#b7e9ff" opacity="0.25"/><rect x="84" y="160" width="12" height="12" fill="#b7e9ff" opacity="0.25"/><rect x="84" y="184" width="12" height="12" fill="#b7e9ff" opacity="0.25"/><rect x="84" y="196" width="12" height="12" fill="#b7e9ff" opacity="0.25"/><rect x="84" y="208" width="12" height="12" fill="#b7e9ff" opacity="0.25"/><rect x="84" y="232" width="12" height="12" fill="#b7e9ff" opacity="0.25"/><rect x="84" y="256" width="12" height="12" fill="#b7e9ff" opacity="0.25"/><rect x="84" y="280" width="12" height="12" fill="#b7e9ff" opacity="0.25"/><rect x="84" y="292" width="12" height="12" fill="#b7e9ff" opacity="0.25"/><rect x="96" y="4" width="12" height="12" fill="#b7e9ff" opacity="0.25"/><rect x="96" y="40" width="12" height="12" fill="#b7e9ff" opacity="0.25"/><rect x="96" y="52" width="12" height="12" fill="#b7e9ff" opacity="0.25"/><rect x="96" y="64" width="12" height="12" fill="#b7e9ff" opacity="0.25"/><rect x="96" y="76" width="12" height="12" fill="#b7e9ff" opacity="0.25"/><rect x="96" y="88" width="12" height="12" fill="#b7e9ff" opacity="0.25"/><rect x="96" y="100" width="12" height="12" fill="#b7e9ff" opacity="0.25"/><rect x="96" y="112" width="12" height="12" fill="#b7e9ff" opacity="0.25"/><rect x="96" y="148" width="12" height="12" fill="#b7e9ff" opacity="0.25"/><rect x="96" y="172" width="12" height="12" fill="#b7e9ff" opacity="0.25"/><rect x="96" y="220" width="12" height="12" fill="#b7e9ff" opacity="0.25"/><rect x="96" y="244" width="12" height="12" fill="#b7e9ff" opacity="0.25"/><rect x="96" y="268" width="12" height="12" fill="#b7e9ff" opacity="0.25"/><rect x="96" y="304" width="12" height="12" fill="#b7e9ff" opacity="0.25"/><rect x="108" y="16" width="12" height="12" fill="#b7e9ff" opacity="0.25"/><rect x="108" y="28" width="12" height="12" fill="#b7e9ff" opacity="0.25"/><rect x="108" y="124" width="12" height="12" fill="#b7e9ff" opacity="0.25"/><rect x="108" y="136" width="12" height="12" fill="#b7e9ff" opacity="0.25"/><rect x="108" y="160" width="12" height="12" fill="#b7e9ff" opacity="0.25"/><rect x="108" y="184" width="12" height="12" fill="#b7e9ff" opacity="0.25"/><rect x="108" y="196" width="12" height="12" fill="#b7e9ff" opacity="0.25"/><rect x="108" y="208" width="12" height="12" fill="#b7e9ff" opacity="0.25"/><rect x="108" y="232" width="12" height="12" fill="#b7e9ff" opacity="0.25"/><rect x="108" y="256" width="12" height="12" fill="#b7e9ff" opacity="0.25"/><rect x="108" y="280" width="12" height="12" fill="#b7e9ff" opacity="0.25"/><rect x="108" y="292" width="12" height="12" fill="#b7e9ff" opacity="0.25"/><rect x="120" y="4" width="12" height="12" fill="#b7e9ff" opacity="0.25"/><rect x="120" y="40" width="12" height="12" fill="#b7e9ff" opacity="0.25"/><rect x="120" y="52" width="12" height="12" fill="#b7e9ff" opacity="0.25"/><rect x="120" y="64" width="12" height="12" fill="#b7e9ff" opacity="0.25"/><rect x="120" y="76" width="12" height="12" fill="#b7e9ff" opacity="0.25"/><rect x="120" y="88" width="12" height="12" fill="#b7e9ff" opacity="0.25"/><rect x="120" y="100" width="12" height="12" fill="#b7e9ff" opacity="0.25"/><rect x="120" y="112" width="12" height="12" fill="#b7e9ff" opacity="0.25"/><rect x="120" y="148" width="12" height="12" fill="#b7e9ff" opacity="0.25"/><rect x="120" y="172" width="12" height="12" fill="#b7e9ff" opacity="0.25"/><rect x="120" y="220" width="12" height="12" fill="#b7e9ff" opacity="0.25"/><rect x="120" y="244" width="12" height="12" fill="#b7e9ff" opacity="0.25"/><rect x="120" y="268" width="12" height="12" fill="#b7e9ff" opacity="0.25"/><rect x="120" y="304" width="12" height="12" fill="#b7e9ff" opacity="0.25"/><rect x="132" y="16" width="12" height="12" fill="#b7e9ff" opacity="0.25"/><rect x="132" y="28" width="12" height="12" fill="#b7e9ff" opacity="0.25"/><rect x="132" y="124" width="12" height="12" fill="#b7e9ff" opacity="0.25"/><rect x="132" y="136" width="12" height="12" fill="#b7e9ff" opacity="0.25"/><rect x="132" y="160" width="12" height="12" fill="#b7e9ff" opacity="0.25"/><rect x="132" y="184" width="12" height="12" fill="#b7e9ff" opacity="0.25"/><rect x="132" y="196" width="12" height="12" fill="#b7e9ff" opacity="0.25"/><rect x="132" y="208" width="12" height="12" fill="#b7e9ff" opacity="0.25"/><rect x="132" y="232" width="12" height="12" fill="#b7e9ff" opacity="0.25"/><rect x="132" y="256" width="12" height="12" fill="#b7e9ff" opacity="0.25"/><rect x="132" y="280" width="12" height="12" fill="#b7e9ff" opacity="0.25"/><rect x="132" y="292" width="12" height="12" fill="#b7e9ff" opacity="0.25"/><rect x="144" y="16" width="12" height="12" fill="#b7e9ff" opacity="0.25"/><rect x="144" y="28" width="12" height="12" fill="#b7e9ff" opacity="0.25"/><rect x="144" y="124" width="12" height="12" fill="#b7e9ff" opacity="0.25"/><rect x="144" y="136" width="12" height="12" fill="#b7e9ff" opacity="0.25"/><rect x="144" y="160" width="12" height="12" fill="#b7e9ff" opacity="0.25"/><rect x="144" y="184" width="12" height="12" fill="#b7e9ff" opacity="0.25"/><rect x="144" y="196" width="12" height="12" fill="#b7e9ff" opacity="0.25"/><rect x="144" y="208" width="12" height="12" fill="#b7e9ff" opacity="0.25"/><rect x="144" y="232" width="12" height="12" fill="#b7e9ff" opacity="0.25"/><rect x="144" y="256" width="12" height="12" fill="#b7e9ff" opacity="0.25"/><rect x="144" y="280" width="12" height="12" fill="#b7e9ff" opacity="0.25"/><rect x="144" y="292" width="12" height="12" fill="#b7e9ff" opacity="0.25"/><rect x="156" y="16" width="12" height="12" fill="#b7e9ff" opacity="0.25"/><rect x="156" y="28" width="12" height="12" fill="#b7e9ff" opacity="0.25"/><rect x="156" y="124" width="12" height="12" fill="#b7e9ff" opacity="0.25"/><rect x="156" y="136" width="12" height="12" fill="#b7e9ff" opacity="0.25"/><rect x="156" y="160" width="12" height="12" fill="#b7e9ff" opacity="0.25"/><rect x="156" y="184" width="12" height="12" fill="#b7e9ff" opacity="0.25"/><rect x="156" y="196" width="12" height="12" fill="#b7e9ff" opacity="0.25"/><rect x="156" y="208" width="12" height="12" fill="#b7e9ff" opacity="0.25"/><rect x="156" y="232" width="12" height="12" fill="#b7e9ff" opacity="0.25"/><rect x="156" y="256" width="12" height="12" fill="#b7e9ff" opacity="0.25"/><rect x="156" y="280" width="12" height="12" fill="#b7e9ff" opacity="0.25"/><rect x="156" y="292" width="12" height="12" fill="#b7e9ff" opacity="0.25"/><rect x="168" y="16" width="12" height="12" fill="#b7e9ff" opacity="0.25"/><rect x="168" y="28" width="12" height="12" fill="#b7e9ff" opacity="0.25"/><rect x="168" y="124" width="12" height="12" fill="#b7e9ff" opacity="0.25"/><rect x="168" y="136" width="12" height="12" fill="#b7e9ff" opacity="0.25"/><rect x="168" y="160" width="12" height="12" fill="#b7e9ff" opacity="0.25"/><rect x="168" y="184" width="12" height="12" fill="#b7e9ff" opacity="0.25"/><rect x="168" y="196" width="12" height="12" fill="#b7e9ff" opacity="0.25"/><rect x="168" y="208" width="12" height="12" fill="#b7e9ff" opacity="0.25"/><rect x="168" y="232" width="12" height="12" fill="#b7e9ff" opacity="0.25"/><rect x="168" y="256" width="12" height="12" fill="#b7e9ff" opacity="0.25"/><rect x="168" y="280" width="12" height="12" fill="#b7e9ff" opacity="0.25"/><rect x="168" y="292" width="12" height="12" fill="#b7e9ff" opacity="0.25"/><rect x="180" y="4" width="12" height="12" fill="#b7e9ff" opacity="0.25"/><rect x="180" y="40" width="12" height="12" fill="#b7e9ff" opacity="0.25"/><rect x="180" y="52" width="12" height="12" fill="#b7e9ff" opacity="0.25"/><rect x="180" y="64" width="12" height="12" fill="#b7e9ff" opacity="0.25"/><rect x="180" y="76" width="12" height="12" fill="#b7e9ff" opacity="0.25"/><rect x="180" y="88" width="12" height="12" fill="#b7e9ff" opacity="0.25"/><rect x="180" y="100" width="12" height="12" fill="#b7e9ff" opacity="0.25"/><rect x="180" y="112" width="12" height="12" fill="#b7e9ff" opacity="0.25"/><rect x="180" y="148" width="12" height="12" fill="#b7e9ff" opacity="0.25"/><rect x="180" y="172" width="12" height="12" fill="#b7e9ff" opacity="0.25"/><rect x="180" y="220" width="12" height="12" fill="#b7e9ff" opacity="0.25"/><rect x="180" y="244" width="12" height="12" fill="#b7e9ff" opacity="0.25"/><rect x="180" y="268" width="12" height="12" fill="#b7e9ff" opacity="0.25"/><rect x="180" y="304" width="12" height="12" fill="#b7e9ff" opacity="0.25"/><rect x="192" y="16" width="12" height="12" fill="#b7e9ff" opacity="0.25"/><rect x="192" y="28" width="12" height="12" fill="#b7e9ff" opacity="0.25"/><rect x="192" y="124" width="12" height="12" fill="#b7e9ff" opacity="0.25"/><rect x="192" y="136" width="12" height="12" fill="#b7e9ff" opacity="0.25"/><rect x="192" y="160" width="12" height="12" fill="#b7e9ff" opacity="0.25"/><rect x="192" y="184" width="12" height="12" fill="#b7e9ff" opacity="0.25"/><rect x="192" y="196" width="12" height="12" fill="#b7e9ff" opacity="0.25"/><rect x="192" y="208" width="12" height="12" fill="#b7e9ff" opacity="0.25"/><rect x="192" y="232" width="12" height="12" fill="#b7e9ff" opacity="0.25"/><rect x="192" y="256" width="12" height="12" fill="#b7e9ff" opacity="0.25"/><rect x="192" y="280" width="12" height="12" fill="#b7e9ff" opacity="0.25"/><rect x="192" y="292" width="12" height="12" fill="#b7e9ff" opacity="0.25"/><rect x="204" y="4" width="12" height="12" fill="#b7e9ff" opacity="0.25"/><rect x="204" y="40" width="12" height="12" fill="#b7e9ff" opacity="0.25"/><rect x="204" y="52" width="12" height="12" fill="#b7e9ff" opacity="0.25"/><rect x="204" y="64" width="12" height="12" fill="#b7e9ff" opacity="0.25"/><rect x="204" y="76" width="12" height="12" fill="#b7e9ff" opacity="0.25"/><rect x="204" y="88" width="12" height="12" fill="#b7e9ff" opacity="0.25"/><rect x="204" y="100" width="12" height="12" fill="#b7e9ff" opacity="0.25"/><rect x="204" y="112" width="12" height="12" fill="#b7e9ff" opacity="0.25"/><rect x="204" y="148" width="12" height="12" fill="#b7e9ff" opacity="0.25"/><rect x="204" y="172" width="12" height="12" fill="#b7e9ff" opacity="0.25"/><rect x="204" y="220" width="12" height="12" fill="#b7e9ff" opacity="0.25"/><rect x="204" y="244" width="12" height="12" fill="#b7e9ff" opacity="0.25"/><rect x="204" y="268" width="12" height="12" fill="#b7e9ff" opacity="0.25"/><rect x="204" y="304" width="12" height="12" fill="#b7e9ff" opacity="0.25"/><rect x="216" y="16" width="12" height="12" fill="#b7e9ff" opacity="0.25"/><rect x="216" y="28" width="12" height="12" fill="#b7e9ff" opacity="0.25"/><rect x="216" y="124" width="12" height="12" fill="#b7e9ff" opacity="0.25"/><rect x="216" y="136" width="12" height="12" fill="#b7e9ff" opacity="0.25"/><rect x="216" y="160" width="12" height="12" fill="#b7e9ff" opacity="0.25"/><rect x="216" y="184" width="12" height="12" fill="#b7e9ff" opacity="0.25"/><rect x="216" y="196" width="12" height="12" fill="#b7e9ff" opacity="0.25"/><rect x="216" y="208" width="12" height="12" fill="#b7e9ff" opacity="0.25"/><rect x="216" y="232" width="12" height="12" fill="#b7e9ff" opacity="0.25"/><rect x="216" y="256" width="12" height="12" fill="#b7e9ff" opacity="0.25"/><rect x="216" y="280" width="12" height="12" fill="#b7e9ff" opacity="0.25"/><rect x="216" y="292" width="12" height="12" fill="#b7e9ff" opacity="0.25"/><rect x="228" y="16" width="12" height="12" fill="#b7e9ff" opacity="0.25"/><rect x="228" y="28" width="12" height="12" fill="#b7e9ff" opacity="0.25"/><rect x="228" y="124" width="12" height="12" fill="#b7e9ff" opacity="0.25"/><rect x="228" y="136" width="12" height="12" fill="#b7e9ff" opacity="0.25"/><rect x="228" y="160" width="12" height="12" fill="#b7e9ff" opacity="0.25"/><rect x="228" y="184" width="12" height="12" fill="#b7e9ff" opacity="0.25"/><rect x="228" y="196" width="12" height="12" fill="#b7e9ff" opacity="0.25"/><rect x="228" y="208" width="12" height="12" fill="#b7e9ff" opacity="0.25"/><rect x="228" y="232" width="12" height="12" fill="#b7e9ff" opacity="0.25"/><rect x="228" y="256" width="12" height="12" fill="#b7e9ff" opacity="0.25"/><rect x="228" y="280" width="12" height="12" fill="#b7e9ff" opacity="0.25"/><rect x="228" y="292" width="12" height="12" fill="#b7e9ff" opacity="0.25"/><path d="M0 5V15M0 29V39M0 53V63M0 77V87M0 101V111M0 125V135M0 149V159M0 173V183M0 197V207M0 221V231M0 245V255M0 269V279M0 293V303M12 5V15M12 29V39M12 53V63M12 77V87M12 101V111M12 125V135M12 149V159M12 173V183M12 197V207M12 221V231M12 245V255M12 269V279M12 293V303M24 17V27M24 41V51M24 65V75M24 89V99M24 113V123M24 137V147M24 161V171M24 185V195M24 209V219M24 233V243M24 257V267M24 281V291M24 305V315M36 5V15M36 29V39M36 53V63M36 77V87M36 101V111M36 125V135M36 149V159M36 173V183M36 197V207M36 221V231M36 245V255M36 269V279M36 293V303M48 17V27M48 41V51M48 65V75M48 89V99M48 113V123M48 137V147M48 161V171M48 185V195M48 209V219M48 233V243M48 257V267M48 281V291M48 305V315M60 5V15M60 29V39M60 53V63M60 77V87M60 101V111M60 125V135M60 149V159M60 173V183M60 197V207M60 221V231M60 245V255M60 269V279M60 293V303M72 5V15M72 29V39M72 53V63M72 77V87M72 101V111M72 125V135M72 149V159M72 173V183M72 197V207M72 221V231M72 245V255M72 269V279M72 293V303M84 17V27M84 41V51M84 65V75M84 89V99M84 113V123M84 137V147M84 161V171M84 185V195M84 209V219M84 233V243M84 257V267M84 281V291M84 305V315M96 17V27M96 41V51M96 65V75M96 89V99M96 113V123M96 137V147M96 161V171M96 185V195M96 209V219M96 233V243M96 257V267M96 281V291M96 305V315M108 17V27M108 41V51M108 65V75M108 89V99M108 113V123M108 137V147M108 161V171M108 185V195M108 209V219M108 233V243M108 257V267M108 281V291M108 305V315M120 17V27M120 41V51M120 65V75M120 89V99M120 113V123M120 137V147M120 161V171M120 185V195M120 209V219M120 233V243M120 257V267M120 281V291M120 305V315M132 5V15M132 29V39M132 53V63M132 77V87M132 101V111M132 125V135M132 149V159M132 173V183M132 197V207M132 221V231M132 245V255M132 269V279M132 293V303M144 5V15M144 29V39M144 53V63M144 77V87M144 101V111M144 125V135M144 149V159M144 173V183M144 197V207M144 221V231M144 245V255M144 269V279M144 293V303M156 5V15M156 29V39M156 53V63M156 77V87M156 101V111M156 125V135M156 149V159M156 173V183M156 197V207M156 221V231M156 245V255M156 269V279M156 293V303M168 17V27M168 41V51M168 65V75M168 89V99M168 113V123M168 137V147M168 161V171M168 185V195M168 209V219M168 233V243M168 257V267M168 281V291M168 305V315M180 17V27M180 41V51M180 65V75M180 89V99M180 113V123M180 137V147M180 161V171M180 185V195M180 209V219M180 233V243M180 257V267M180 281V291M180 305V315M192 17V27M192 41V51M192 65V75M192 89V99M192 113V123M192 137V147M192 161V171M192 185V195M192 209V219M192 233V243M192 257V267M192 281V291M192 305V315M204 17V27M204 41V51M204 65V75M204 89V99M204 113V123M204 137V147M204 161V171M204 185V195M204 209V219M204 233V243M204 257V267M204 281V291M204 305V315M216 5V15M216 29V39M216 53V63M216 77V87M216 101V111M216 125V135M216 149V159M216 173V183M216 197V207M216 221V231M216 245V255M216 269V279M216 293V303M228 17V27M228 41V51M228 65V75M228 89V99M228 113V123M228 137V147M228 161V171M228 185V195M228 209V219M228 233V243M228 257V267M228 281V291M228 305V315M240 17V27M240 41V51M240 65V75M240 89V99M240 113V123M240 137V147M240 161V171M240 185V195M240 209V219M240 233V243M240 257V267M240 281V291M240 305V315M13 4H23M37 4H47M61 4H71M85 4H95M109 4H119M133 4H143M157 4H167M181 4H191M205 4H215M229 4H239M1 16H11M25 16H35M49 16H59M73 16H83M97 16H107M121 16H131M145 16H155M169 16H179M193 16H203M217 16H227M13 28H23M37 28H47M61 28H71M85 28H95M109 28H119M133 28H143M157 28H167M181 28H191M205 28H215M229 28H239M1 40H11M25 40H35M49 40H59M73 40H83M97 40H107M121 40H131M145 40H155M169 40H179M193 40H203M217 40H227M1 52H11M25 52H35M49 52H59M73 52H83M97 52H107M121 52H131M145 52H155M169 52H179M193 52H203M217 52H227M1 64H11M25 64H35M49 64H59M73 64H83M97 64H107M121 64H131M145 64H155M169 64H179M193 64H203M217 64H227M1 76H11M25 76H35M49 76H59M73 76H83M97 76H107M121 76H131M145 76H155M169 76H179M193 76H203M217 76H227M1 88H11M25 88H35M49 88H59M73 88H83M97 88H107M121 88H131M145 88H155M169 88H179M193 88H203M217 88H227M1 100H11M25 100H35M49 100H59M73 100H83M97 100H107M121 100H131M145 100H155M169 100H179M193 100H203M217 100H227M13 112H23M37 112H47M61 112H71M85 112H95M109 112H119M133 112H143M157 112H167M181 112H191M205 112H215M229 112H239M1 124H11M25 124H35M49 124H59M73 124H83M97 124H107M121 124H131M145 124H155M169 124H179M193 124H203M217 124H227M13 136H23M37 136H47M61 136H71M85 136H95M109 136H119M133 136H143M157 136H167M181 136H191M205 136H215M229 136H239M13 148H23M37 148H47M61 148H71M85 148H95M109 148H119M133 148H143M157 148H167M181 148H191M205 148H215M229 148H239M13 160H23M37 160H47M61 160H71M85 160H95M109 160H119M133 160H143M157 160H167M181 160H191M205 160H215M229 160H239M13 172H23M37 172H47M61 172H71M85 172H95M109 172H119M133 172H143M157 172H167M181 172H191M205 172H215M229 172H239M1 184H11M25 184H35M49 184H59M73 184H83M97 184H107M121 184H131M145 184H155M169 184H179M193 184H203M217 184H227M1 196H11M25 196H35M49 196H59M73 196H83M97 196H107M121 196H131M145 196H155M169 196H179M193 196H203M217 196H227M13 208H23M37 208H47M61 208H71M85 208H95M109 208H119M133 208H143M157 208H167M181 208H191M205 208H215M229 208H239M13 220H23M37 220H47M61 220H71M85 220H95M109 220H119M133 220H143M157 220H167M181 220H191M205 220H215M229 220H239M13 232H23M37 232H47M61 232H71M85 232H95M109 232H119M133 232H143M157 232H167M181 232H191M205 232H215M229 232H239M13 244H23M37 244H47M61 244H71M85 244H95M109 244H119M133 244H143M157 244H167M181 244H191M205 244H215M229 244H239M13 256H23M37 256H47M61 256H71M85 256H95M109 256H119M133 256H143M157 256H167M181 256H191M205 256H215M229 256H239M13 268H23M37 268H47M61 268H71M85 268H95M109 268H119M133 268H143M157 268H167M181 268H191M205 268H215M229 268H239M1 280H11M25 280H35M49 280H59M73 280H83M97 280H107M121 280H131M145 280H155M169 280H179M193 280H203M217 280H227M13 292H23M37 292H47M61 292H71M85 292H95M109 292H119M133 292H143M157 292H167M181 292H191M205 292H215M229 292H239M13 304H23M37 304H47M61 304H71M85 304H95M109 304H119M133 304H143M157 304H167M181 304H191M205 304H215M229 304H239M1 316H11M25 316H35M49 316H59M73 316H83M97 316H107M121 316H131M145 316H155M169 316H179M193 316H203M217 316H227" fill="none" stroke="#e4e4e4" stroke-width="0.7" stroke-linecap="round"/></svg>