<svg viewBox="0 0 240 320" xmlns="http://www.w3.org/2000/svg"><rect x="0" y="0" width="240" height="320" fill="#020202"/><path d="M230.06 168.68A36.74 36.74 0 0 0 202.91 232.89A35.26 35.26 0 0 0 145.30 267.46A40.54 40.54 0 0 0 69.74 258.30A42.06 42.06 0 0 0 17.08 199.94A36.74 36.74 0 0 0 13.67 130.30A35.26 35.26 0 0 0 50.58 74.16A40.54 40.54 0 0 0 122.63 49.63A42.06 42.06 0 0 0 195.40 79.36A36.74 36.74 0 0 0 228.69 140.62A35.26 35.26 0 0 0 219.79 207.22A40.54 40.54 0 0 0 165.52 260.58A42.06 42.06 0 0 0 87.05 265.37A36.74 36.74 0 0 0 30.48 224.61A35.26 35.26 0 0 0 9.60 160.76A40.54 40.54 0 0 0 35.35 89.13A42.06 42.06 0 0 0 103.97 50.77A36.74 36.74 0 0 0 172.62 62.94A35.26 35.26 0 0 0 219.14 111.42A40.54 40.54 0 0 0 227.02 187.12A42.06 42.06 0 0 0 181.84 251.46A36.74 36.74 0 0 0 114.71 270.27A35.26 35.26 0 0 0 51.76 246.78A40.54 40.54 0 0 0 11.81 181.99A42.06 42.06 0 0 0 24.60 104.43A36.74 36.74 0 0 0 76.92 58.35A35.26 35.26 0 0 0 143.83 52.20A40.54 40.54 0 0 0 207.93 93.24A42.06 42.06 0 0 0 230.06 168.68" fill="none" stroke="#e4e4e4" stroke-width="0.4" opacity="0.2"/><path d="M230.21 166.49A37.18 37.18 0 0 0 203.83 231.84A35.06 35.06 0 0 0 147.03 267.04A40.10 40.10 0 0 0 72.04 259.44A42.28 42.28 0 0 0 17.89 201.97A37.18 37.18 0 0 0 13.30 131.65A35.06 35.06 0 0 0 49.20 75.29A40.10 40.10 0 0 0 120.07 49.60A42.28 42.28 0 0 0 193.79 77.88A37.18 37.18 0 0 0 228.43 139.25A35.06 35.06 0 0 0 220.54 205.60A40.10 40.10 0 0 0 167.84 259.50A42.28 42.28 0 0 0 89.14 266.00A37.18 37.18 0 0 0 31.31 225.75A35.06 35.06 0 0 0 9.63 162.53A40.10 40.10 0 0 0 33.73 91.11A42.28 42.28 0 0 0 101.81 51.11A37.18 37.18 0 0 0 171.38 62.28A35.06 35.06 0 0 0 218.34 109.83A40.10 40.10 0 0 0 227.62 184.63A42.28 42.28 0 0 0 183.64 250.21A37.18 37.18 0 0 0 116.11 270.33A35.06 35.06 0 0 0 53.17 247.87A40.10 40.10 0 0 0 12.35 184.50A42.28 42.28 0 0 0 23.52 106.33A37.18 37.18 0 0 0 75.64 58.91A35.06 35.06 0 0 0 142.09 51.83A40.10 40.10 0 0 0 206.36 91.22A42.28 42.28 0 0 0 230.21 166.49" fill="none" stroke="#e4e4e4" stroke-width="0.4" opacity="0.4"/><path d="M230.32 164.24A37.64 37.64 0 0 0 204.76 230.74A34.91 34.91 0 0 0 148.68 266.61A39.63 39.63 0 0 0 74.33 260.51A42.44 42.44 0 0 0 18.77 204.05A37.64 37.64 0 0 0 12.94 133.04A34.91 34.91 0 0 0 47.90 76.39A39.63 39.63 0 0 0 117.54 49.63A42.44 42.44 0 0 0 192.10 76.39A37.64 37.64 0 0 0 228.15 137.84A34.91 34.91 0 0 0 221.23 204.05A39.63 39.63 0 0 0 170.11 258.37A42.44 42.44 0 0 0 91.32 266.61A37.64 37.64 0 0 0 32.17 226.89A34.91 34.91 0 0 0 9.68 164.24A39.63 39.63 0 0 0 32.17 93.11A42.44 42.44 0 0 0 99.59 51.50A37.64 37.64 0 0 0 170.11 61.63A34.91 34.91 0 0 0 217.55 108.31A39.63 39.63 0 0 0 228.15 182.16A42.44 42.44 0 0 0 185.47 248.89A37.64 37.64 0 0 0 117.54 270.37A34.91 34.91 0 0 0 54.53 248.89A39.63 39.63 0 0 0 12.94 186.96A42.44 42.44 0 0 0 22.45 108.31A37.64 37.64 0 0 0 74.33 59.49A34.91 34.91 0 0 0 140.41 51.50A39.63 39.63 0 0 0 204.76 89.26A42.44 42.44 0 0 0 230.32 164.24" fill="none" stroke="#e4e4e4" stroke-width="0.5" opacity="0.6"/></svg>