<svg viewBox="0 0 240 320" xmlns="http://www.w3.org/2000/svg"><rect x="0" y="0" width="240" height="320" fill="#020202"/><g transform="translate(120 160) scale(0.91) translate(-120 -160)"><line x1="69.4" y1="35.9" x2="97.73" y2="37.5" stroke="#e4e4e4" stroke-width="1.65" stroke-linecap="round" opacity="0.85"/><line x1="202.75" y1="70.55" x2="203.18" y2="110.98" stroke="#e4e4e4" stroke-width="1.65" stroke-linecap="round" opacity="0.85"/><line x1="150.02" y1="128.05" x2="188.35" y2="126.56" stroke="#e4e4e4" stroke-width="1.65" stroke-linecap="round" opacity="0.85"/><line x1="67.47" y1="195.54" x2="107.73" y2="202.15" stroke="#e4e4e4" stroke-width="1.65" stroke-linecap="round" opacity="0.85"/><line x1="137.53" y1="204.34" x2="173.43" y2="203.76" stroke="#e4e4e4" stroke-width="1.65" stroke-linecap="round" opacity="0.85"/><line x1="119.37" y1="219.24" x2="112.41" y2="251.49" stroke="#e4e4e4" stroke-width="1.65" stroke-linecap="round" opacity="0.85"/><line x1="189.94" y1="218.44" x2="192.46" y2="243.49" stroke="#e4e4e4" stroke-width="1.65" stroke-linecap="round" opacity="0.85"/><line x1="74.84" y1="275.37" x2="94.75" y2="270.04" stroke="#e4e4e4" stroke-width="1.65" stroke-linecap="round" opacity="0.85"/><circle cx="54.43" cy="35.06" r="15" fill="#e4e4e4" opacity="0.85"/><circle cx="112.7" cy="38.34" r="15" fill="#e4e4e4" opacity="0.85"/><circle cx="202.59" cy="55.55" r="15" fill="#e4e4e4" opacity="0.85"/><circle cx="46.79" cy="114.57" r="15" fill="#e4e4e4" opacity="0.85"/><circle cx="135.03" cy="128.63" r="15" fill="#e4e4e4" opacity="0.85"/><circle cx="203.34" cy="125.98" r="15" fill="#e4e4e4" opacity="0.85"/><circle cx="52.67" cy="193.11" r="15" fill="#e4e4e4" opacity="0.85"/><circle cx="122.54" cy="204.58" r="15" fill="#e4e4e4" opacity="0.85"/><circle cx="188.43" cy="203.52" r="15" fill="#e4e4e4" opacity="0.85"/><circle cx="60.35" cy="279.26" r="15" fill="#e4e4e4" opacity="0.85"/><circle cx="109.24" cy="266.15" r="15" fill="#e4e4e4" opacity="0.85"/><circle cx="193.96" cy="258.41" r="15" fill="#e4e4e4" opacity="0.85"/></g></svg>