<svg viewBox="0 0 240 320" xmlns="http://www.w3.org/2000/svg"><rect x="0" y="0" width="240" height="320" fill="#020202"/><g transform="translate(120 160) scale(1.22) translate(-120 -160)"><circle cx="-74" cy="-74" r="74" fill="#e4e4e4" stroke="none"/><path d="M-78.62 -74A4.63 4.63 0 1 0 -69.37 -74A4.63 4.63 0 1 0 -78.62 -74M-87.87 -74A13.88 13.88 0 1 0 -60.12 -74A13.88 13.88 0 1 0 -87.87 -74M-97.12 -74A23.13 23.13 0 1 0 -50.87 -74A23.13 23.13 0 1 0 -97.12 -74M-106.37 -74A32.38 32.38 0 1 0 -41.62 -74A32.38 32.38 0 1 0 -106.37 -74M-115.62 -74A41.63 41.63 0 1 0 -32.37 -74A41.63 41.63 0 1 0 -115.62 -74M-124.87 -74A50.88 50.88 0 1 0 -23.12 -74A50.88 50.88 0 1 0 -124.87 -74M-134.12 -74A60.13 60.13 0 1 0 -13.87 -74A60.13 60.13 0 1 0 -134.12 -74M-143.37 -74A69.38 69.38 0 1 0 -4.62 -74A69.38 69.38 0 1 0 -143.37 -74" fill="none" stroke="#020202" stroke-width="6.11"/><circle cx="32.56" cy="-74" r="74" fill="#a5abe9" stroke="none"/><path d="M30.25 -74A2.31 2.31 0 1 0 34.87 -74A2.31 2.31 0 1 0 30.25 -74M25.62 -74A6.94 6.94 0 1 0 39.5 -74A6.94 6.94 0 1 0 25.62 -74M21 -74A11.56 11.56 0 1 0 44.12 -74A11.56 11.56 0 1 0 21 -74M16.37 -74A16.19 16.19 0 1 0 48.75 -74A16.19 16.19 0 1 0 16.37 -74M11.75 -74A20.81 20.81 0 1 0 53.37 -74A20.81 20.81 0 1 0 11.75 -74M7.12 -74A25.44 25.44 0 1 0 58 -74A25.44 25.44 0 1 0 7.12 -74M2.5 -74A30.06 30.06 0 1 0 62.62 -74A30.06 30.06 0 1 0 2.5 -74M-2.13 -74A34.69 34.69 0 1 0 67.25 -74A34.69 34.69 0 1 0 -2.13 -74M-6.75 -74A39.31 39.31 0 1 0 71.87 -74A39.31 39.31 0 1 0 -6.75 -74M-11.38 -74A43.94 43.94 0 1 0 76.5 -74A43.94 43.94 0 1 0 -11.38 -74M-16 -74A48.56 48.56 0 1 0 81.12 -74A48.56 48.56 0 1 0 -16 -74M-20.63 -74A53.19 53.19 0 1 0 85.75 -74A53.19 53.19 0 1 0 -20.63 -74M-25.25 -74A57.81 57.81 0 1 0 90.37 -74A57.81 57.81 0 1 0 -25.25 -74M-29.88 -74A62.44 62.44 0 1 0 95 -74A62.44 62.44 0 1 0 -29.88 -74M-34.5 -74A67.06 67.06 0 1 0 99.62 -74A67.06 67.06 0 1 0 -34.5 -74M-39.13 -74A71.69 71.69 0 1 0 104.25 -74A71.69 71.69 0 1 0 -39.13 -74M32.56 -74L106.56 -74M32.56 -74L103.56 -53.15M32.56 -74L94.81 -33.99M32.56 -74L81.02 -18.07M32.56 -74L63.3 -6.69M32.56 -74L43.09 -0.75M32.56 -74L22.03 -0.75M32.56 -74L1.82 -6.69M32.56 -74L-15.9 -18.07M32.56 -74L-29.69 -33.99M32.56 -74L-38.44 -53.15M32.56 -74L-41.44 -74M32.56 -74L-38.44 -94.85M32.56 -74L-29.69 -114.01M32.56 -74L-15.9 -129.93M32.56 -74L1.82 -141.31M32.56 -74L22.03 -147.25M32.56 -74L43.09 -147.25M32.56 -74L63.3 -141.31M32.56 -74L81.02 -129.93M32.56 -74L94.81 -114.01M32.56 -74L103.56 -94.85" fill="none" stroke="#020202" stroke-width="0.92"/><circle cx="139.12" cy="-74" r="74" fill="#a5abe9" stroke="none"/><path d="M136.81 -74A2.31 2.31 0 1 0 141.43 -74A2.31 2.31 0 1 0 136.81 -74M132.18 -74A6.94 6.94 0 1 0 146.06 -74A6.94 6.94 0 1 0 132.18 -74M127.56 -74A11.56 11.56 0 1 0 150.68 -74A11.56 11.56 0 1 0 127.56 -74M122.93 -74A16.19 16.19 0 1 0 155.31 -74A16.19 16.19 0 1 0 122.93 -74M118.31 -74A20.81 20.81 0 1 0 159.93 -74A20.81 20.81 0 1 0 118.31 -74M113.68 -74A25.44 25.44 0 1 0 164.56 -74A25.44 25.44 0 1 0 113.68 -74M109.06 -74A30.06 30.06 0 1 0 169.18 -74A30.06 30.06 0 1 0 109.06 -74M104.43 -74A34.69 34.69 0 1 0 173.81 -74A34.69 34.69 0 1 0 104.43 -74M99.81 -74A39.31 39.31 0 1 0 178.43 -74A39.31 39.31 0 1 0 99.81 -74M95.18 -74A43.94 43.94 0 1 0 183.06 -74A43.94 43.94 0 1 0 95.18 -74M90.56 -74A48.56 48.56 0 1 0 187.68 -74A48.56 48.56 0 1 0 90.56 -74M85.93 -74A53.19 53.19 0 1 0 192.31 -74A53.19 53.19 0 1 0 85.93 -74M81.31 -74A57.81 57.81 0 1 0 196.93 -74A57.81 57.81 0 1 0 81.31 -74M76.68 -74A62.44 62.44 0 1 0 201.56 -74A62.44 62.44 0 1 0 76.68 -74M72.06 -74A67.06 67.06 0 1 0 206.18 -74A67.06 67.06 0 1 0 72.06 -74M67.43 -74A71.69 71.69 0 1 0 210.81 -74A71.69 71.69 0 1 0 67.43 -74M139.12 -74L213.12 -74M139.12 -74L210.12 -53.15M139.12 -74L201.37 -33.99M139.12 -74L187.58 -18.07M139.12 -74L169.86 -6.69M139.12 -74L149.65 -0.75M139.12 -74L128.59 -0.75M139.12 -74L108.38 -6.69M139.12 -74L90.66 -18.07M139.12 -74L76.87 -33.99M139.12 -74L68.12 -53.15M139.12 -74L65.12 -74M139.12 -74L68.12 -94.85M139.12 -74L76.87 -114.01M139.12 -74L90.66 -129.93M139.12 -74L108.38 -141.31M139.12 -74L128.59 -147.25M139.12 -74L149.65 -147.25M139.12 -74L169.86 -141.31M139.12 -74L187.58 -129.93M139.12 -74L201.37 -114.01M139.12 -74L210.12 -94.85" fill="none" stroke="#020202" stroke-width="0.92"/><circle cx="245.68" cy="-74" r="74" fill="#a5abe9" stroke="none"/><path d="M243.37 -74A2.31 2.31 0 1 0 247.99 -74A2.31 2.31 0 1 0 243.37 -74M238.74 -74A6.94 6.94 0 1 0 252.62 -74A6.94 6.94 0 1 0 238.74 -74M234.12 -74A11.56 11.56 0 1 0 257.24 -74A11.56 11.56 0 1 0 234.12 -74M229.49 -74A16.19 16.19 0 1 0 261.87 -74A16.19 16.19 0 1 0 229.49 -74M224.87 -74A20.81 20.81 0 1 0 266.49 -74A20.81 20.81 0 1 0 224.87 -74M220.24 -74A25.44 25.44 0 1 0 271.12 -74A25.44 25.44 0 1 0 220.24 -74M215.62 -74A30.06 30.06 0 1 0 275.74 -74A30.06 30.06 0 1 0 215.62 -74M210.99 -74A34.69 34.69 0 1 0 280.37 -74A34.69 34.69 0 1 0 210.99 -74M206.37 -74A39.31 39.31 0 1 0 284.99 -74A39.31 39.31 0 1 0 206.37 -74M201.74 -74A43.94 43.94 0 1 0 289.62 -74A43.94 43.94 0 1 0 201.74 -74M197.12 -74A48.56 48.56 0 1 0 294.24 -74A48.56 48.56 0 1 0 197.12 -74M192.49 -74A53.19 53.19 0 1 0 298.87 -74A53.19 53.19 0 1 0 192.49 -74M187.87 -74A57.81 57.81 0 1 0 303.49 -74A57.81 57.81 0 1 0 187.87 -74M183.24 -74A62.44 62.44 0 1 0 308.12 -74A62.44 62.44 0 1 0 183.24 -74M178.62 -74A67.06 67.06 0 1 0 312.74 -74A67.06 67.06 0 1 0 178.62 -74M173.99 -74A71.69 71.69 0 1 0 317.37 -74A71.69 71.69 0 1 0 173.99 -74M245.68 -74L319.68 -74M245.68 -74L316.68 -53.15M245.68 -74L307.93 -33.99M245.68 -74L294.14 -18.07M245.68 -74L276.42 -6.69M245.68 -74L256.21 -0.75M245.68 -74L235.15 -0.75M245.68 -74L214.94 -6.69M245.68 -74L197.22 -18.07M245.68 -74L183.43 -33.99M245.68 -74L174.68 -53.15M245.68 -74L171.68 -74M245.68 -74L174.68 -94.85M245.68 -74L183.43 -114.01M245.68 -74L197.22 -129.93M245.68 -74L214.94 -141.31M245.68 -74L235.15 -147.25M245.68 -74L256.21 -147.25M245.68 -74L276.42 -141.31M245.68 -74L294.14 -129.93M245.68 -74L307.93 -114.01M245.68 -74L316.68 -94.85" fill="none" stroke="#020202" stroke-width="0.92"/><circle cx="-20.72" cy="-10.36" r="74" fill="#e4e4e4" stroke="none"/><path d="M-25.34 -10.36A4.63 4.63 0 1 0 -16.09 -10.36A4.63 4.63 0 1 0 -25.34 -10.36M-34.59 -10.36A13.88 13.88 0 1 0 -6.84 -10.36A13.88 13.88 0 1 0 -34.59 -10.36M-43.84 -10.36A23.13 23.13 0 1 0 2.41 -10.36A23.13 23.13 0 1 0 -43.84 -10.36M-53.09 -10.36A32.38 32.38 0 1 0 11.66 -10.36A32.38 32.38 0 1 0 -53.09 -10.36M-62.34 -10.36A41.63 41.63 0 1 0 20.91 -10.36A41.63 41.63 0 1 0 -62.34 -10.36M-71.59 -10.36A50.88 50.88 0 1 0 30.16 -10.36A50.88 50.88 0 1 0 -71.59 -10.36M-80.84 -10.36A60.13 60.13 0 1 0 39.41 -10.36A60.13 60.13 0 1 0 -80.84 -10.36M-90.09 -10.36A69.38 69.38 0 1 0 48.66 -10.36A69.38 69.38 0 1 0 -90.09 -10.36" fill="none" stroke="#020202" stroke-width="6.11"/><circle cx="85.84" cy="-10.36" r="74" fill="#e4e4e4" stroke="none"/><path d="M81.22 -10.36A4.63 4.63 0 1 0 90.47 -10.36A4.63 4.63 0 1 0 81.22 -10.36M71.97 -10.36A13.88 13.88 0 1 0 99.72 -10.36A13.88 13.88 0 1 0 71.97 -10.36M62.72 -10.36A23.13 23.13 0 1 0 108.97 -10.36A23.13 23.13 0 1 0 62.72 -10.36M53.47 -10.36A32.38 32.38 0 1 0 118.22 -10.36A32.38 32.38 0 1 0 53.47 -10.36M44.22 -10.36A41.63 41.63 0 1 0 127.47 -10.36A41.63 41.63 0 1 0 44.22 -10.36M34.97 -10.36A50.88 50.88 0 1 0 136.72 -10.36A50.88 50.88 0 1 0 34.97 -10.36M25.72 -10.36A60.13 60.13 0 1 0 145.97 -10.36A60.13 60.13 0 1 0 25.72 -10.36M16.47 -10.36A69.38 69.38 0 1 0 155.22 -10.36A69.38 69.38 0 1 0 16.47 -10.36" fill="none" stroke="#020202" stroke-width="6.11"/><circle cx="192.4" cy="-10.36" r="74" fill="#a5abe9" stroke="none"/><path d="M190.09 -10.36A2.31 2.31 0 1 0 194.71 -10.36A2.31 2.31 0 1 0 190.09 -10.36M185.46 -10.36A6.94 6.94 0 1 0 199.34 -10.36A6.94 6.94 0 1 0 185.46 -10.36M180.84 -10.36A11.56 11.56 0 1 0 203.96 -10.36A11.56 11.56 0 1 0 180.84 -10.36M176.21 -10.36A16.19 16.19 0 1 0 208.59 -10.36A16.19 16.19 0 1 0 176.21 -10.36M171.59 -10.36A20.81 20.81 0 1 0 213.21 -10.36A20.81 20.81 0 1 0 171.59 -10.36M166.96 -10.36A25.44 25.44 0 1 0 217.84 -10.36A25.44 25.44 0 1 0 166.96 -10.36M162.34 -10.36A30.06 30.06 0 1 0 222.46 -10.36A30.06 30.06 0 1 0 162.34 -10.36M157.71 -10.36A34.69 34.69 0 1 0 227.09 -10.36A34.69 34.69 0 1 0 157.71 -10.36M153.09 -10.36A39.31 39.31 0 1 0 231.71 -10.36A39.31 39.31 0 1 0 153.09 -10.36M148.46 -10.36A43.94 43.94 0 1 0 236.34 -10.36A43.94 43.94 0 1 0 148.46 -10.36M143.84 -10.36A48.56 48.56 0 1 0 240.96 -10.36A48.56 48.56 0 1 0 143.84 -10.36M139.21 -10.36A53.19 53.19 0 1 0 245.59 -10.36A53.19 53.19 0 1 0 139.21 -10.36M134.59 -10.36A57.81 57.81 0 1 0 250.21 -10.36A57.81 57.81 0 1 0 134.59 -10.36M129.96 -10.36A62.44 62.44 0 1 0 254.84 -10.36A62.44 62.44 0 1 0 129.96 -10.36M125.34 -10.36A67.06 67.06 0 1 0 259.46 -10.36A67.06 67.06 0 1 0 125.34 -10.36M120.71 -10.36A71.69 71.69 0 1 0 264.09 -10.36A71.69 71.69 0 1 0 120.71 -10.36M192.4 -10.36L266.4 -10.36M192.4 -10.36L263.4 10.49M192.4 -10.36L254.65 29.65M192.4 -10.36L240.86 45.57M192.4 -10.36L223.14 56.95M192.4 -10.36L202.93 62.89M192.4 -10.36L181.87 62.89M192.4 -10.36L161.66 56.95M192.4 -10.36L143.94 45.57M192.4 -10.36L130.15 29.65M192.4 -10.36L121.4 10.49M192.4 -10.36L118.4 -10.36M192.4 -10.36L121.4 -31.21M192.4 -10.36L130.15 -50.37M192.4 -10.36L143.94 -66.29M192.4 -10.36L161.66 -77.67M192.4 -10.36L181.87 -83.61M192.4 -10.36L202.93 -83.61M192.4 -10.36L223.14 -77.67M192.4 -10.36L240.86 -66.29M192.4 -10.36L254.65 -50.37M192.4 -10.36L263.4 -31.21" fill="none" stroke="#020202" stroke-width="0.92"/><circle cx="298.96" cy="-10.36" r="74" fill="#a5abe9" stroke="none"/><path d="M296.65 -10.36A2.31 2.31 0 1 0 301.27 -10.36A2.31 2.31 0 1 0 296.65 -10.36M292.02 -10.36A6.94 6.94 0 1 0 305.9 -10.36A6.94 6.94 0 1 0 292.02 -10.36M287.4 -10.36A11.56 11.56 0 1 0 310.52 -10.36A11.56 11.56 0 1 0 287.4 -10.36M282.77 -10.36A16.19 16.19 0 1 0 315.15 -10.36A16.19 16.19 0 1 0 282.77 -10.36M278.15 -10.36A20.81 20.81 0 1 0 319.77 -10.36A20.81 20.81 0 1 0 278.15 -10.36M273.52 -10.36A25.44 25.44 0 1 0 324.4 -10.36A25.44 25.44 0 1 0 273.52 -10.36M268.9 -10.36A30.06 30.06 0 1 0 329.02 -10.36A30.06 30.06 0 1 0 268.9 -10.36M264.27 -10.36A34.69 34.69 0 1 0 333.65 -10.36A34.69 34.69 0 1 0 264.27 -10.36M259.65 -10.36A39.31 39.31 0 1 0 338.27 -10.36A39.31 39.31 0 1 0 259.65 -10.36M255.02 -10.36A43.94 43.94 0 1 0 342.9 -10.36A43.94 43.94 0 1 0 255.02 -10.36M250.4 -10.36A48.56 48.56 0 1 0 347.52 -10.36A48.56 48.56 0 1 0 250.4 -10.36M245.77 -10.36A53.19 53.19 0 1 0 352.15 -10.36A53.19 53.19 0 1 0 245.77 -10.36M241.15 -10.36A57.81 57.81 0 1 0 356.77 -10.36A57.81 57.81 0 1 0 241.15 -10.36M236.52 -10.36A62.44 62.44 0 1 0 361.4 -10.36A62.44 62.44 0 1 0 236.52 -10.36M231.9 -10.36A67.06 67.06 0 1 0 366.02 -10.36A67.06 67.06 0 1 0 231.9 -10.36M227.27 -10.36A71.69 71.69 0 1 0 370.65 -10.36A71.69 71.69 0 1 0 227.27 -10.36M298.96 -10.36L372.96 -10.36M298.96 -10.36L369.96 10.49M298.96 -10.36L361.21 29.65M298.96 -10.36L347.42 45.57M298.96 -10.36L329.7 56.95M298.96 -10.36L309.49 62.89M298.96 -10.36L288.43 62.89M298.96 -10.36L268.22 56.95M298.96 -10.36L250.5 45.57M298.96 -10.36L236.71 29.65M298.96 -10.36L227.96 10.49M298.96 -10.36L224.96 -10.36M298.96 -10.36L227.96 -31.21M298.96 -10.36L236.71 -50.37M298.96 -10.36L250.5 -66.29M298.96 -10.36L268.22 -77.67M298.96 -10.36L288.43 -83.61M298.96 -10.36L309.49 -83.61M298.96 -10.36L329.7 -77.67M298.96 -10.36L347.42 -66.29M298.96 -10.36L361.21 -50.37M298.96 -10.36L369.96 -31.21" fill="none" stroke="#020202" stroke-width="0.92"/><circle cx="-74" cy="53.28" r="74" fill="#a5abe9" stroke="none"/><path d="M-76.31 53.28A2.31 2.31 0 1 0 -71.69 53.28A2.31 2.31 0 1 0 -76.31 53.28M-80.94 53.28A6.94 6.94 0 1 0 -67.06 53.28A6.94 6.94 0 1 0 -80.94 53.28M-85.56 53.28A11.56 11.56 0 1 0 -62.44 53.28A11.56 11.56 0 1 0 -85.56 53.28M-90.19 53.28A16.19 16.19 0 1 0 -57.81 53.28A16.19 16.19 0 1 0 -90.19 53.28M-94.81 53.28A20.81 20.81 0 1 0 -53.19 53.28A20.81 20.81 0 1 0 -94.81 53.28M-99.44 53.28A25.44 25.44 0 1 0 -48.56 53.28A25.44 25.44 0 1 0 -99.44 53.28M-104.06 53.28A30.06 30.06 0 1 0 -43.94 53.28A30.06 30.06 0 1 0 -104.06 53.28M-108.69 53.28A34.69 34.69 0 1 0 -39.31 53.28A34.69 34.69 0 1 0 -108.69 53.28M-113.31 53.28A39.31 39.31 0 1 0 -34.69 53.28A39.31 39.31 0 1 0 -113.31 53.28M-117.94 53.28A43.94 43.94 0 1 0 -30.06 53.28A43.94 43.94 0 1 0 -117.94 53.28M-122.56 53.28A48.56 48.56 0 1 0 -25.44 53.28A48.56 48.56 0 1 0 -122.56 53.28M-127.19 53.28A53.19 53.19 0 1 0 -20.81 53.28A53.19 53.19 0 1 0 -127.19 53.28M-131.81 53.28A57.81 57.81 0 1 0 -16.19 53.28A57.81 57.81 0 1 0 -131.81 53.28M-136.44 53.28A62.44 62.44 0 1 0 -11.56 53.28A62.44 62.44 0 1 0 -136.44 53.28M-141.06 53.28A67.06 67.06 0 1 0 -6.94 53.28A67.06 67.06 0 1 0 -141.06 53.28M-145.69 53.28A71.69 71.69 0 1 0 -2.31 53.28A71.69 71.69 0 1 0 -145.69 53.28M-74 53.28L0 53.28M-74 53.28L-3 74.13M-74 53.28L-11.75 93.29M-74 53.28L-25.54 109.21M-74 53.28L-43.26 120.59M-74 53.28L-63.47 126.53M-74 53.28L-84.53 126.53M-74 53.28L-104.74 120.59M-74 53.28L-122.46 109.21M-74 53.28L-136.25 93.29M-74 53.28L-145 74.13M-74 53.28L-148 53.28M-74 53.28L-145 32.43M-74 53.28L-136.25 13.27M-74 53.28L-122.46 -2.65M-74 53.28L-104.74 -14.03M-74 53.28L-84.53 -19.97M-74 53.28L-63.47 -19.97M-74 53.28L-43.26 -14.03M-74 53.28L-25.54 -2.65M-74 53.28L-11.75 13.27M-74 53.28L-3 32.43" fill="none" stroke="#020202" stroke-width="0.92"/><circle cx="32.56" cy="53.28" r="74" fill="#e4e4e4" stroke="none"/><path d="M27.94 53.28A4.63 4.63 0 1 0 37.19 53.28A4.63 4.63 0 1 0 27.94 53.28M18.69 53.28A13.88 13.88 0 1 0 46.44 53.28A13.88 13.88 0 1 0 18.69 53.28M9.44 53.28A23.13 23.13 0 1 0 55.69 53.28A23.13 23.13 0 1 0 9.44 53.28M0.19 53.28A32.38 32.38 0 1 0 64.94 53.28A32.38 32.38 0 1 0 0.19 53.28M-9.06 53.28A41.63 41.63 0 1 0 74.19 53.28A41.63 41.63 0 1 0 -9.06 53.28M-18.31 53.28A50.88 50.88 0 1 0 83.44 53.28A50.88 50.88 0 1 0 -18.31 53.28M-27.56 53.28A60.13 60.13 0 1 0 92.69 53.28A60.13 60.13 0 1 0 -27.56 53.28M-36.81 53.28A69.38 69.38 0 1 0 101.94 53.28A69.38 69.38 0 1 0 -36.81 53.28" fill="none" stroke="#020202" stroke-width="6.11"/><circle cx="139.12" cy="53.28" r="74" fill="#a5abe9" stroke="none"/><path d="M136.81 53.28A2.31 2.31 0 1 0 141.43 53.28A2.31 2.31 0 1 0 136.81 53.28M132.18 53.28A6.94 6.94 0 1 0 146.06 53.28A6.94 6.94 0 1 0 132.18 53.28M127.56 53.28A11.56 11.56 0 1 0 150.68 53.28A11.56 11.56 0 1 0 127.56 53.28M122.93 53.28A16.19 16.19 0 1 0 155.31 53.28A16.19 16.19 0 1 0 122.93 53.28M118.31 53.28A20.81 20.81 0 1 0 159.93 53.28A20.81 20.81 0 1 0 118.31 53.28M113.68 53.28A25.44 25.44 0 1 0 164.56 53.28A25.44 25.44 0 1 0 113.68 53.28M109.06 53.28A30.06 30.06 0 1 0 169.18 53.28A30.06 30.06 0 1 0 109.06 53.28M104.43 53.28A34.69 34.69 0 1 0 173.81 53.28A34.69 34.69 0 1 0 104.43 53.28M99.81 53.28A39.31 39.31 0 1 0 178.43 53.28A39.31 39.31 0 1 0 99.81 53.28M95.18 53.28A43.94 43.94 0 1 0 183.06 53.28A43.94 43.94 0 1 0 95.18 53.28M90.56 53.28A48.56 48.56 0 1 0 187.68 53.28A48.56 48.56 0 1 0 90.56 53.28M85.93 53.28A53.19 53.19 0 1 0 192.31 53.28A53.19 53.19 0 1 0 85.93 53.28M81.31 53.28A57.81 57.81 0 1 0 196.93 53.28A57.81 57.81 0 1 0 81.31 53.28M76.68 53.28A62.44 62.44 0 1 0 201.56 53.28A62.44 62.44 0 1 0 76.68 53.28M72.06 53.28A67.06 67.06 0 1 0 206.18 53.28A67.06 67.06 0 1 0 72.06 53.28M67.43 53.28A71.69 71.69 0 1 0 210.81 53.28A71.69 71.69 0 1 0 67.43 53.28M139.12 53.28L213.12 53.28M139.12 53.28L210.12 74.13M139.12 53.28L201.37 93.29M139.12 53.28L187.58 109.21M139.12 53.28L169.86 120.59M139.12 53.28L149.65 126.53M139.12 53.28L128.59 126.53M139.12 53.28L108.38 120.59M139.12 53.28L90.66 109.21M139.12 53.28L76.87 93.29M139.12 53.28L68.12 74.13M139.12 53.28L65.12 53.28M139.12 53.28L68.12 32.43M139.12 53.28L76.87 13.27M139.12 53.28L90.66 -2.65M139.12 53.28L108.38 -14.03M139.12 53.28L128.59 -19.97M139.12 53.28L149.65 -19.97M139.12 53.28L169.86 -14.03M139.12 53.28L187.58 -2.65M139.12 53.28L201.37 13.27M139.12 53.28L210.12 32.43" fill="none" stroke="#020202" stroke-width="0.92"/><circle cx="245.68" cy="53.28" r="74" fill="#a5abe9" stroke="none"/><path d="M243.37 53.28A2.31 2.31 0 1 0 247.99 53.28A2.31 2.31 0 1 0 243.37 53.28M238.74 53.28A6.94 6.94 0 1 0 252.62 53.28A6.94 6.94 0 1 0 238.74 53.28M234.12 53.28A11.56 11.56 0 1 0 257.24 53.28A11.56 11.56 0 1 0 234.12 53.28M229.49 53.28A16.19 16.19 0 1 0 261.87 53.28A16.19 16.19 0 1 0 229.49 53.28M224.87 53.28A20.81 20.81 0 1 0 266.49 53.28A20.81 20.81 0 1 0 224.87 53.28M220.24 53.28A25.44 25.44 0 1 0 271.12 53.28A25.44 25.44 0 1 0 220.24 53.28M215.62 53.28A30.06 30.06 0 1 0 275.74 53.28A30.06 30.06 0 1 0 215.62 53.28M210.99 53.28A34.69 34.69 0 1 0 280.37 53.28A34.69 34.69 0 1 0 210.99 53.28M206.37 53.28A39.31 39.31 0 1 0 284.99 53.28A39.31 39.31 0 1 0 206.37 53.28M201.74 53.28A43.94 43.94 0 1 0 289.62 53.28A43.94 43.94 0 1 0 201.74 53.28M197.12 53.28A48.56 48.56 0 1 0 294.24 53.28A48.56 48.56 0 1 0 197.12 53.28M192.49 53.28A53.19 53.19 0 1 0 298.87 53.28A53.19 53.19 0 1 0 192.49 53.28M187.87 53.28A57.81 57.81 0 1 0 303.49 53.28A57.81 57.81 0 1 0 187.87 53.28M183.24 53.28A62.44 62.44 0 1 0 308.12 53.28A62.44 62.44 0 1 0 183.24 53.28M178.62 53.28A67.06 67.06 0 1 0 312.74 53.28A67.06 67.06 0 1 0 178.62 53.28M173.99 53.28A71.69 71.69 0 1 0 317.37 53.28A71.69 71.69 0 1 0 173.99 53.28M245.68 53.28L319.68 53.28M245.68 53.28L316.68 74.13M245.68 53.28L307.93 93.29M245.68 53.28L294.14 109.21M245.68 53.28L276.42 120.59M245.68 53.28L256.21 126.53M245.68 53.28L235.15 126.53M245.68 53.28L214.94 120.59M245.68 53.28L197.22 109.21M245.68 53.28L183.43 93.29M245.68 53.28L174.68 74.13M245.68 53.28L171.68 53.28M245.68 53.28L174.68 32.43M245.68 53.28L183.43 13.27M245.68 53.28L197.22 -2.65M245.68 53.28L214.94 -14.03M245.68 53.28L235.15 -19.97M245.68 53.28L256.21 -19.97M245.68 53.28L276.42 -14.03M245.68 53.28L294.14 -2.65M245.68 53.28L307.93 13.27M245.68 53.28L316.68 32.43" fill="none" stroke="#020202" stroke-width="0.92"/><circle cx="-20.72" cy="116.92" r="74" fill="#a5abe9" stroke="none"/><path d="M-23.03 116.92A2.31 2.31 0 1 0 -18.41 116.92A2.31 2.31 0 1 0 -23.03 116.92M-27.66 116.92A6.94 6.94 0 1 0 -13.78 116.92A6.94 6.94 0 1 0 -27.66 116.92M-32.28 116.92A11.56 11.56 0 1 0 -9.16 116.92A11.56 11.56 0 1 0 -32.28 116.92M-36.91 116.92A16.19 16.19 0 1 0 -4.53 116.92A16.19 16.19 0 1 0 -36.91 116.92M-41.53 116.92A20.81 20.81 0 1 0 0.09 116.92A20.81 20.81 0 1 0 -41.53 116.92M-46.16 116.92A25.44 25.44 0 1 0 4.72 116.92A25.44 25.44 0 1 0 -46.16 116.92M-50.78 116.92A30.06 30.06 0 1 0 9.34 116.92A30.06 30.06 0 1 0 -50.78 116.92M-55.41 116.92A34.69 34.69 0 1 0 13.97 116.92A34.69 34.69 0 1 0 -55.41 116.92M-60.03 116.92A39.31 39.31 0 1 0 18.59 116.92A39.31 39.31 0 1 0 -60.03 116.92M-64.66 116.92A43.94 43.94 0 1 0 23.22 116.92A43.94 43.94 0 1 0 -64.66 116.92M-69.28 116.92A48.56 48.56 0 1 0 27.84 116.92A48.56 48.56 0 1 0 -69.28 116.92M-73.91 116.92A53.19 53.19 0 1 0 32.47 116.92A53.19 53.19 0 1 0 -73.91 116.92M-78.53 116.92A57.81 57.81 0 1 0 37.09 116.92A57.81 57.81 0 1 0 -78.53 116.92M-83.16 116.92A62.44 62.44 0 1 0 41.72 116.92A62.44 62.44 0 1 0 -83.16 116.92M-87.78 116.92A67.06 67.06 0 1 0 46.34 116.92A67.06 67.06 0 1 0 -87.78 116.92M-92.41 116.92A71.69 71.69 0 1 0 50.97 116.92A71.69 71.69 0 1 0 -92.41 116.92M-20.72 116.92L53.28 116.92M-20.72 116.92L50.28 137.77M-20.72 116.92L41.53 156.93M-20.72 116.92L27.74 172.85M-20.72 116.92L10.02 184.23M-20.72 116.92L-10.19 190.17M-20.72 116.92L-31.25 190.17M-20.72 116.92L-51.46 184.23M-20.72 116.92L-69.18 172.85M-20.72 116.92L-82.97 156.93M-20.72 116.92L-91.72 137.77M-20.72 116.92L-94.72 116.92M-20.72 116.92L-91.72 96.07M-20.72 116.92L-82.97 76.91M-20.72 116.92L-69.18 60.99M-20.72 116.92L-51.46 49.61M-20.72 116.92L-31.25 43.67M-20.72 116.92L-10.19 43.67M-20.72 116.92L10.02 49.61M-20.72 116.92L27.74 60.99M-20.72 116.92L41.53 76.91M-20.72 116.92L50.28 96.07" fill="none" stroke="#020202" stroke-width="0.92"/><circle cx="85.84" cy="116.92" r="74" fill="#a5abe9" stroke="none"/><path d="M83.53 116.92A2.31 2.31 0 1 0 88.15 116.92A2.31 2.31 0 1 0 83.53 116.92M78.9 116.92A6.94 6.94 0 1 0 92.78 116.92A6.94 6.94 0 1 0 78.9 116.92M74.28 116.92A11.56 11.56 0 1 0 97.4 116.92A11.56 11.56 0 1 0 74.28 116.92M69.65 116.92A16.19 16.19 0 1 0 102.03 116.92A16.19 16.19 0 1 0 69.65 116.92M65.03 116.92A20.81 20.81 0 1 0 106.65 116.92A20.81 20.81 0 1 0 65.03 116.92M60.4 116.92A25.44 25.44 0 1 0 111.28 116.92A25.44 25.44 0 1 0 60.4 116.92M55.78 116.92A30.06 30.06 0 1 0 115.9 116.92A30.06 30.06 0 1 0 55.78 116.92M51.15 116.92A34.69 34.69 0 1 0 120.53 116.92A34.69 34.69 0 1 0 51.15 116.92M46.53 116.92A39.31 39.31 0 1 0 125.15 116.92A39.31 39.31 0 1 0 46.53 116.92M41.9 116.92A43.94 43.94 0 1 0 129.78 116.92A43.94 43.94 0 1 0 41.9 116.92M37.28 116.92A48.56 48.56 0 1 0 134.4 116.92A48.56 48.56 0 1 0 37.28 116.92M32.65 116.92A53.19 53.19 0 1 0 139.03 116.92A53.19 53.19 0 1 0 32.65 116.92M28.03 116.92A57.81 57.81 0 1 0 143.65 116.92A57.81 57.81 0 1 0 28.03 116.92M23.4 116.92A62.44 62.44 0 1 0 148.28 116.92A62.44 62.44 0 1 0 23.4 116.92M18.78 116.92A67.06 67.06 0 1 0 152.9 116.92A67.06 67.06 0 1 0 18.78 116.92M14.15 116.92A71.69 71.69 0 1 0 157.53 116.92A71.69 71.69 0 1 0 14.15 116.92M85.84 116.92L159.84 116.92M85.84 116.92L156.84 137.77M85.84 116.92L148.09 156.93M85.84 116.92L134.3 172.85M85.84 116.92L116.58 184.23M85.84 116.92L96.37 190.17M85.84 116.92L75.31 190.17M85.84 116.92L55.1 184.23M85.84 116.92L37.38 172.85M85.84 116.92L23.59 156.93M85.84 116.92L14.84 137.77M85.84 116.92L11.84 116.92M85.84 116.92L14.84 96.07M85.84 116.92L23.59 76.91M85.84 116.92L37.38 60.99M85.84 116.92L55.1 49.61M85.84 116.92L75.31 43.67M85.84 116.92L96.37 43.67M85.84 116.92L116.58 49.61M85.84 116.92L134.3 60.99M85.84 116.92L148.09 76.91M85.84 116.92L156.84 96.07" fill="none" stroke="#020202" stroke-width="0.92"/><circle cx="192.4" cy="116.92" r="74" fill="#a5abe9" stroke="none"/><path d="M190.09 116.92A2.31 2.31 0 1 0 194.71 116.92A2.31 2.31 0 1 0 190.09 116.92M185.46 116.92A6.94 6.94 0 1 0 199.34 116.92A6.94 6.94 0 1 0 185.46 116.92M180.84 116.92A11.56 11.56 0 1 0 203.96 116.92A11.56 11.56 0 1 0 180.84 116.92M176.21 116.92A16.19 16.19 0 1 0 208.59 116.92A16.19 16.19 0 1 0 176.21 116.92M171.59 116.92A20.81 20.81 0 1 0 213.21 116.92A20.81 20.81 0 1 0 171.59 116.92M166.96 116.92A25.44 25.44 0 1 0 217.84 116.92A25.44 25.44 0 1 0 166.96 116.92M162.34 116.92A30.06 30.06 0 1 0 222.46 116.92A30.06 30.06 0 1 0 162.34 116.92M157.71 116.92A34.69 34.69 0 1 0 227.09 116.92A34.69 34.69 0 1 0 157.71 116.92M153.09 116.92A39.31 39.31 0 1 0 231.71 116.92A39.31 39.31 0 1 0 153.09 116.92M148.46 116.92A43.94 43.94 0 1 0 236.34 116.92A43.94 43.94 0 1 0 148.46 116.92M143.84 116.92A48.56 48.56 0 1 0 240.96 116.92A48.56 48.56 0 1 0 143.84 116.92M139.21 116.92A53.19 53.19 0 1 0 245.59 116.92A53.19 53.19 0 1 0 139.21 116.92M134.59 116.92A57.81 57.81 0 1 0 250.21 116.92A57.81 57.81 0 1 0 134.59 116.92M129.96 116.92A62.44 62.44 0 1 0 254.84 116.92A62.44 62.44 0 1 0 129.96 116.92M125.34 116.92A67.06 67.06 0 1 0 259.46 116.92A67.06 67.06 0 1 0 125.34 116.92M120.71 116.92A71.69 71.69 0 1 0 264.09 116.92A71.69 71.69 0 1 0 120.71 116.92M192.4 116.92L266.4 116.92M192.4 116.92L263.4 137.77M192.4 116.92L254.65 156.93M192.4 116.92L240.86 172.85M192.4 116.92L223.14 184.23M192.4 116.92L202.93 190.17M192.4 116.92L181.87 190.17M192.4 116.92L161.66 184.23M192.4 116.92L143.94 172.85M192.4 116.92L130.15 156.93M192.4 116.92L121.4 137.77M192.4 116.92L118.4 116.92M192.4 116.92L121.4 96.07M192.4 116.92L130.15 76.91M192.4 116.92L143.94 60.99M192.4 116.92L161.66 49.61M192.4 116.92L181.87 43.67M192.4 116.92L202.93 43.67M192.4 116.92L223.14 49.61M192.4 116.92L240.86 60.99M192.4 116.92L254.65 76.91M192.4 116.92L263.4 96.07" fill="none" stroke="#020202" stroke-width="0.92"/><circle cx="298.96" cy="116.92" r="74" fill="#a5abe9" stroke="none"/><path d="M296.65 116.92A2.31 2.31 0 1 0 301.27 116.92A2.31 2.31 0 1 0 296.65 116.92M292.02 116.92A6.94 6.94 0 1 0 305.9 116.92A6.94 6.94 0 1 0 292.02 116.92M287.4 116.92A11.56 11.56 0 1 0 310.52 116.92A11.56 11.56 0 1 0 287.4 116.92M282.77 116.92A16.19 16.19 0 1 0 315.15 116.92A16.19 16.19 0 1 0 282.77 116.92M278.15 116.92A20.81 20.81 0 1 0 319.77 116.92A20.81 20.81 0 1 0 278.15 116.92M273.52 116.92A25.44 25.44 0 1 0 324.4 116.92A25.44 25.44 0 1 0 273.52 116.92M268.9 116.92A30.06 30.06 0 1 0 329.02 116.92A30.06 30.06 0 1 0 268.9 116.92M264.27 116.92A34.69 34.69 0 1 0 333.65 116.92A34.69 34.69 0 1 0 264.27 116.92M259.65 116.92A39.31 39.31 0 1 0 338.27 116.92A39.31 39.31 0 1 0 259.65 116.92M255.02 116.92A43.94 43.94 0 1 0 342.9 116.92A43.94 43.94 0 1 0 255.02 116.92M250.4 116.92A48.56 48.56 0 1 0 347.52 116.92A48.56 48.56 0 1 0 250.4 116.92M245.77 116.92A53.19 53.19 0 1 0 352.15 116.92A53.19 53.19 0 1 0 245.77 116.92M241.15 116.92A57.81 57.81 0 1 0 356.77 116.92A57.81 57.81 0 1 0 241.15 116.92M236.52 116.92A62.44 62.44 0 1 0 361.4 116.92A62.44 62.44 0 1 0 236.52 116.92M231.9 116.92A67.06 67.06 0 1 0 366.02 116.92A67.06 67.06 0 1 0 231.9 116.92M227.27 116.92A71.69 71.69 0 1 0 370.65 116.92A71.69 71.69 0 1 0 227.27 116.92M298.96 116.92L372.96 116.92M298.96 116.92L369.96 137.77M298.96 116.92L361.21 156.93M298.96 116.92L347.42 172.85M298.96 116.92L329.7 184.23M298.96 116.92L309.49 190.17M298.96 116.92L288.43 190.17M298.96 116.92L268.22 184.23M298.96 116.92L250.5 172.85M298.96 116.92L236.71 156.93M298.96 116.92L227.96 137.77M298.96 116.92L224.96 116.92M298.96 116.92L227.96 96.07M298.96 116.92L236.71 76.91M298.96 116.92L250.5 60.99M298.96 116.92L268.22 49.61M298.96 116.92L288.43 43.67M298.96 116.92L309.49 43.67M298.96 116.92L329.7 49.61M298.96 116.92L347.42 60.99M298.96 116.92L361.21 76.91M298.96 116.92L369.96 96.07" fill="none" stroke="#020202" stroke-width="0.92"/><circle cx="-74" cy="180.56" r="74" fill="#e4e4e4" stroke="none"/><path d="M-78.62 180.56A4.63 4.63 0 1 0 -69.37 180.56A4.63 4.63 0 1 0 -78.62 180.56M-87.87 180.56A13.88 13.88 0 1 0 -60.12 180.56A13.88 13.88 0 1 0 -87.87 180.56M-97.12 180.56A23.13 23.13 0 1 0 -50.87 180.56A23.13 23.13 0 1 0 -97.12 180.56M-106.37 180.56A32.38 32.38 0 1 0 -41.62 180.56A32.38 32.38 0 1 0 -106.37 180.56M-115.62 180.56A41.63 41.63 0 1 0 -32.37 180.56A41.63 41.63 0 1 0 -115.62 180.56M-124.87 180.56A50.88 50.88 0 1 0 -23.12 180.56A50.88 50.88 0 1 0 -124.87 180.56M-134.12 180.56A60.13 60.13 0 1 0 -13.87 180.56A60.13 60.13 0 1 0 -134.12 180.56M-143.37 180.56A69.38 69.38 0 1 0 -4.62 180.56A69.38 69.38 0 1 0 -143.37 180.56" fill="none" stroke="#020202" stroke-width="6.11"/><circle cx="32.56" cy="180.56" r="74" fill="#a5abe9" stroke="none"/><path d="M30.25 180.56A2.31 2.31 0 1 0 34.87 180.56A2.31 2.31 0 1 0 30.25 180.56M25.62 180.56A6.94 6.94 0 1 0 39.5 180.56A6.94 6.94 0 1 0 25.62 180.56M21 180.56A11.56 11.56 0 1 0 44.12 180.56A11.56 11.56 0 1 0 21 180.56M16.37 180.56A16.19 16.19 0 1 0 48.75 180.56A16.19 16.19 0 1 0 16.37 180.56M11.75 180.56A20.81 20.81 0 1 0 53.37 180.56A20.81 20.81 0 1 0 11.75 180.56M7.12 180.56A25.44 25.44 0 1 0 58 180.56A25.44 25.44 0 1 0 7.12 180.56M2.5 180.56A30.06 30.06 0 1 0 62.62 180.56A30.06 30.06 0 1 0 2.5 180.56M-2.13 180.56A34.69 34.69 0 1 0 67.25 180.56A34.69 34.69 0 1 0 -2.13 180.56M-6.75 180.56A39.31 39.31 0 1 0 71.87 180.56A39.31 39.31 0 1 0 -6.75 180.56M-11.38 180.56A43.94 43.94 0 1 0 76.5 180.56A43.94 43.94 0 1 0 -11.38 180.56M-16 180.56A48.56 48.56 0 1 0 81.12 180.56A48.56 48.56 0 1 0 -16 180.56M-20.63 180.56A53.19 53.19 0 1 0 85.75 180.56A53.19 53.19 0 1 0 -20.63 180.56M-25.25 180.56A57.81 57.81 0 1 0 90.37 180.56A57.81 57.81 0 1 0 -25.25 180.56M-29.88 180.56A62.44 62.44 0 1 0 95 180.56A62.44 62.44 0 1 0 -29.88 180.56M-34.5 180.56A67.06 67.06 0 1 0 99.62 180.56A67.06 67.06 0 1 0 -34.5 180.56M-39.13 180.56A71.69 71.69 0 1 0 104.25 180.56A71.69 71.69 0 1 0 -39.13 180.56M32.56 180.56L106.56 180.56M32.56 180.56L103.56 201.41M32.56 180.56L94.81 220.57M32.56 180.56L81.02 236.49M32.56 180.56L63.3 247.87M32.56 180.56L43.09 253.81M32.56 180.56L22.03 253.81M32.56 180.56L1.82 247.87M32.56 180.56L-15.9 236.49M32.56 180.56L-29.69 220.57M32.56 180.56L-38.44 201.41M32.56 180.56L-41.44 180.56M32.56 180.56L-38.44 159.71M32.56 180.56L-29.69 140.55M32.56 180.56L-15.9 124.63M32.56 180.56L1.82 113.25M32.56 180.56L22.03 107.31M32.56 180.56L43.09 107.31M32.56 180.56L63.3 113.25M32.56 180.56L81.02 124.63M32.56 180.56L94.81 140.55M32.56 180.56L103.56 159.71" fill="none" stroke="#020202" stroke-width="0.92"/><circle cx="139.12" cy="180.56" r="74" fill="#e4e4e4" stroke="none"/><path d="M134.5 180.56A4.63 4.63 0 1 0 143.75 180.56A4.63 4.63 0 1 0 134.5 180.56M125.25 180.56A13.88 13.88 0 1 0 153 180.56A13.88 13.88 0 1 0 125.25 180.56M116 180.56A23.13 23.13 0 1 0 162.25 180.56A23.13 23.13 0 1 0 116 180.56M106.75 180.56A32.38 32.38 0 1 0 171.5 180.56A32.38 32.38 0 1 0 106.75 180.56M97.5 180.56A41.63 41.63 0 1 0 180.75 180.56A41.63 41.63 0 1 0 97.5 180.56M88.25 180.56A50.88 50.88 0 1 0 190 180.56A50.88 50.88 0 1 0 88.25 180.56M79 180.56A60.13 60.13 0 1 0 199.25 180.56A60.13 60.13 0 1 0 79 180.56M69.75 180.56A69.38 69.38 0 1 0 208.5 180.56A69.38 69.38 0 1 0 69.75 180.56" fill="none" stroke="#020202" stroke-width="6.11"/><circle cx="245.68" cy="180.56" r="74" fill="#a5abe9" stroke="none"/><path d="M243.37 180.56A2.31 2.31 0 1 0 247.99 180.56A2.31 2.31 0 1 0 243.37 180.56M238.74 180.56A6.94 6.94 0 1 0 252.62 180.56A6.94 6.94 0 1 0 238.74 180.56M234.12 180.56A11.56 11.56 0 1 0 257.24 180.56A11.56 11.56 0 1 0 234.12 180.56M229.49 180.56A16.19 16.19 0 1 0 261.87 180.56A16.19 16.19 0 1 0 229.49 180.56M224.87 180.56A20.81 20.81 0 1 0 266.49 180.56A20.81 20.81 0 1 0 224.87 180.56M220.24 180.56A25.44 25.44 0 1 0 271.12 180.56A25.44 25.44 0 1 0 220.24 180.56M215.62 180.56A30.06 30.06 0 1 0 275.74 180.56A30.06 30.06 0 1 0 215.62 180.56M210.99 180.56A34.69 34.69 0 1 0 280.37 180.56A34.69 34.69 0 1 0 210.99 180.56M206.37 180.56A39.31 39.31 0 1 0 284.99 180.56A39.31 39.31 0 1 0 206.37 180.56M201.74 180.56A43.94 43.94 0 1 0 289.62 180.56A43.94 43.94 0 1 0 201.74 180.56M197.12 180.56A48.56 48.56 0 1 0 294.24 180.56A48.56 48.56 0 1 0 197.12 180.56M192.49 180.56A53.19 53.19 0 1 0 298.87 180.56A53.19 53.19 0 1 0 192.49 180.56M187.87 180.56A57.81 57.81 0 1 0 303.49 180.56A57.81 57.81 0 1 0 187.87 180.56M183.24 180.56A62.44 62.44 0 1 0 308.12 180.56A62.44 62.44 0 1 0 183.24 180.56M178.62 180.56A67.06 67.06 0 1 0 312.74 180.56A67.06 67.06 0 1 0 178.62 180.56M173.99 180.56A71.69 71.69 0 1 0 317.37 180.56A71.69 71.69 0 1 0 173.99 180.56M245.68 180.56L319.68 180.56M245.68 180.56L316.68 201.41M245.68 180.56L307.93 220.57M245.68 180.56L294.14 236.49M245.68 180.56L276.42 247.87M245.68 180.56L256.21 253.81M245.68 180.56L235.15 253.81M245.68 180.56L214.94 247.87M245.68 180.56L197.22 236.49M245.68 180.56L183.43 220.57M245.68 180.56L174.68 201.41M245.68 180.56L171.68 180.56M245.68 180.56L174.68 159.71M245.68 180.56L183.43 140.55M245.68 180.56L197.22 124.63M245.68 180.56L214.94 113.25M245.68 180.56L235.15 107.31M245.68 180.56L256.21 107.31M245.68 180.56L276.42 113.25M245.68 180.56L294.14 124.63M245.68 180.56L307.93 140.55M245.68 180.56L316.68 159.71" fill="none" stroke="#020202" stroke-width="0.92"/><circle cx="-20.72" cy="244.2" r="74" fill="#e4e4e4" stroke="none"/><path d="M-25.34 244.2A4.63 4.63 0 1 0 -16.09 244.2A4.63 4.63 0 1 0 -25.34 244.2M-34.59 244.2A13.88 13.88 0 1 0 -6.84 244.2A13.88 13.88 0 1 0 -34.59 244.2M-43.84 244.2A23.13 23.13 0 1 0 2.41 244.2A23.13 23.13 0 1 0 -43.84 244.2M-53.09 244.2A32.38 32.38 0 1 0 11.66 244.2A32.38 32.38 0 1 0 -53.09 244.2M-62.34 244.2A41.63 41.63 0 1 0 20.91 244.2A41.63 41.63 0 1 0 -62.34 244.2M-71.59 244.2A50.88 50.88 0 1 0 30.16 244.2A50.88 50.88 0 1 0 -71.59 244.2M-80.84 244.2A60.13 60.13 0 1 0 39.41 244.2A60.13 60.13 0 1 0 -80.84 244.2M-90.09 244.2A69.38 69.38 0 1 0 48.66 244.2A69.38 69.38 0 1 0 -90.09 244.2" fill="none" stroke="#020202" stroke-width="6.11"/><circle cx="85.84" cy="244.2" r="74" fill="#e4e4e4" stroke="none"/><path d="M81.22 244.2A4.63 4.63 0 1 0 90.47 244.2A4.63 4.63 0 1 0 81.22 244.2M71.97 244.2A13.88 13.88 0 1 0 99.72 244.2A13.88 13.88 0 1 0 71.97 244.2M62.72 244.2A23.13 23.13 0 1 0 108.97 244.2A23.13 23.13 0 1 0 62.72 244.2M53.47 244.2A32.38 32.38 0 1 0 118.22 244.2A32.38 32.38 0 1 0 53.47 244.2M44.22 244.2A41.63 41.63 0 1 0 127.47 244.2A41.63 41.63 0 1 0 44.22 244.2M34.97 244.2A50.88 50.88 0 1 0 136.72 244.2A50.88 50.88 0 1 0 34.97 244.2M25.72 244.2A60.13 60.13 0 1 0 145.97 244.2A60.13 60.13 0 1 0 25.72 244.2M16.47 244.2A69.38 69.38 0 1 0 155.22 244.2A69.38 69.38 0 1 0 16.47 244.2" fill="none" stroke="#020202" stroke-width="6.11"/><circle cx="192.4" cy="244.2" r="74" fill="#a5abe9" stroke="none"/><path d="M190.09 244.2A2.31 2.31 0 1 0 194.71 244.2A2.31 2.31 0 1 0 190.09 244.2M185.46 244.2A6.94 6.94 0 1 0 199.34 244.2A6.94 6.94 0 1 0 185.46 244.2M180.84 244.2A11.56 11.56 0 1 0 203.96 244.2A11.56 11.56 0 1 0 180.84 244.2M176.21 244.2A16.19 16.19 0 1 0 208.59 244.2A16.19 16.19 0 1 0 176.21 244.2M171.59 244.2A20.81 20.81 0 1 0 213.21 244.2A20.81 20.81 0 1 0 171.59 244.2M166.96 244.2A25.44 25.44 0 1 0 217.84 244.2A25.44 25.44 0 1 0 166.96 244.2M162.34 244.2A30.06 30.06 0 1 0 222.46 244.2A30.06 30.06 0 1 0 162.34 244.2M157.71 244.2A34.69 34.69 0 1 0 227.09 244.2A34.69 34.69 0 1 0 157.71 244.2M153.09 244.2A39.31 39.31 0 1 0 231.71 244.2A39.31 39.31 0 1 0 153.09 244.2M148.46 244.2A43.94 43.94 0 1 0 236.34 244.2A43.94 43.94 0 1 0 148.46 244.2M143.84 244.2A48.56 48.56 0 1 0 240.96 244.2A48.56 48.56 0 1 0 143.84 244.2M139.21 244.2A53.19 53.19 0 1 0 245.59 244.2A53.19 53.19 0 1 0 139.21 244.2M134.59 244.2A57.81 57.81 0 1 0 250.21 244.2A57.81 57.81 0 1 0 134.59 244.2M129.96 244.2A62.44 62.44 0 1 0 254.84 244.2A62.44 62.44 0 1 0 129.96 244.2M125.34 244.2A67.06 67.06 0 1 0 259.46 244.2A67.06 67.06 0 1 0 125.34 244.2M120.71 244.2A71.69 71.69 0 1 0 264.09 244.2A71.69 71.69 0 1 0 120.71 244.2M192.4 244.2L266.4 244.2M192.4 244.2L263.4 265.05M192.4 244.2L254.65 284.21M192.4 244.2L240.86 300.13M192.4 244.2L223.14 311.51M192.4 244.2L202.93 317.45M192.4 244.2L181.87 317.45M192.4 244.2L161.66 311.51M192.4 244.2L143.94 300.13M192.4 244.2L130.15 284.21M192.4 244.2L121.4 265.05M192.4 244.2L118.4 244.2M192.4 244.2L121.4 223.35M192.4 244.2L130.15 204.19M192.4 244.2L143.94 188.27M192.4 244.2L161.66 176.89M192.4 244.2L181.87 170.95M192.4 244.2L202.93 170.95M192.4 244.2L223.14 176.89M192.4 244.2L240.86 188.27M192.4 244.2L254.65 204.19M192.4 244.2L263.4 223.35" fill="none" stroke="#020202" stroke-width="0.92"/><circle cx="298.96" cy="244.2" r="74" fill="#a5abe9" stroke="none"/><path d="M296.65 244.2A2.31 2.31 0 1 0 301.27 244.2A2.31 2.31 0 1 0 296.65 244.2M292.02 244.2A6.94 6.94 0 1 0 305.9 244.2A6.94 6.94 0 1 0 292.02 244.2M287.4 244.2A11.56 11.56 0 1 0 310.52 244.2A11.56 11.56 0 1 0 287.4 244.2M282.77 244.2A16.19 16.19 0 1 0 315.15 244.2A16.19 16.19 0 1 0 282.77 244.2M278.15 244.2A20.81 20.81 0 1 0 319.77 244.2A20.81 20.81 0 1 0 278.15 244.2M273.52 244.2A25.44 25.44 0 1 0 324.4 244.2A25.44 25.44 0 1 0 273.52 244.2M268.9 244.2A30.06 30.06 0 1 0 329.02 244.2A30.06 30.06 0 1 0 268.9 244.2M264.27 244.2A34.69 34.69 0 1 0 333.65 244.2A34.69 34.69 0 1 0 264.27 244.2M259.65 244.2A39.31 39.31 0 1 0 338.27 244.2A39.31 39.31 0 1 0 259.65 244.2M255.02 244.2A43.94 43.94 0 1 0 342.9 244.2A43.94 43.94 0 1 0 255.02 244.2M250.4 244.2A48.56 48.56 0 1 0 347.52 244.2A48.56 48.56 0 1 0 250.4 244.2M245.77 244.2A53.19 53.19 0 1 0 352.15 244.2A53.19 53.19 0 1 0 245.77 244.2M241.15 244.2A57.81 57.81 0 1 0 356.77 244.2A57.81 57.81 0 1 0 241.15 244.2M236.52 244.2A62.44 62.44 0 1 0 361.4 244.2A62.44 62.44 0 1 0 236.52 244.2M231.9 244.2A67.06 67.06 0 1 0 366.02 244.2A67.06 67.06 0 1 0 231.9 244.2M227.27 244.2A71.69 71.69 0 1 0 370.65 244.2A71.69 71.69 0 1 0 227.27 244.2M298.96 244.2L372.96 244.2M298.96 244.2L369.96 265.05M298.96 244.2L361.21 284.21M298.96 244.2L347.42 300.13M298.96 244.2L329.7 311.51M298.96 244.2L309.49 317.45M298.96 244.2L288.43 317.45M298.96 244.2L268.22 311.51M298.96 244.2L250.5 300.13M298.96 244.2L236.71 284.21M298.96 244.2L227.96 265.05M298.96 244.2L224.96 244.2M298.96 244.2L227.96 223.35M298.96 244.2L236.71 204.19M298.96 244.2L250.5 188.27M298.96 244.2L268.22 176.89M298.96 244.2L288.43 170.95M298.96 244.2L309.49 170.95M298.96 244.2L329.7 176.89M298.96 244.2L347.42 188.27M298.96 244.2L361.21 204.19M298.96 244.2L369.96 223.35" fill="none" stroke="#020202" stroke-width="0.92"/><circle cx="-74" cy="307.84" r="74" fill="#a5abe9" stroke="none"/><path d="M-76.31 307.84A2.31 2.31 0 1 0 -71.69 307.84A2.31 2.31 0 1 0 -76.31 307.84M-80.94 307.84A6.94 6.94 0 1 0 -67.06 307.84A6.94 6.94 0 1 0 -80.94 307.84M-85.56 307.84A11.56 11.56 0 1 0 -62.44 307.84A11.56 11.56 0 1 0 -85.56 307.84M-90.19 307.84A16.19 16.19 0 1 0 -57.81 307.84A16.19 16.19 0 1 0 -90.19 307.84M-94.81 307.84A20.81 20.81 0 1 0 -53.19 307.84A20.81 20.81 0 1 0 -94.81 307.84M-99.44 307.84A25.44 25.44 0 1 0 -48.56 307.84A25.44 25.44 0 1 0 -99.44 307.84M-104.06 307.84A30.06 30.06 0 1 0 -43.94 307.84A30.06 30.06 0 1 0 -104.06 307.84M-108.69 307.84A34.69 34.69 0 1 0 -39.31 307.84A34.69 34.69 0 1 0 -108.69 307.84M-113.31 307.84A39.31 39.31 0 1 0 -34.69 307.84A39.31 39.31 0 1 0 -113.31 307.84M-117.94 307.84A43.94 43.94 0 1 0 -30.06 307.84A43.94 43.94 0 1 0 -117.94 307.84M-122.56 307.84A48.56 48.56 0 1 0 -25.44 307.84A48.56 48.56 0 1 0 -122.56 307.84M-127.19 307.84A53.19 53.19 0 1 0 -20.81 307.84A53.19 53.19 0 1 0 -127.19 307.84M-131.81 307.84A57.81 57.81 0 1 0 -16.19 307.84A57.81 57.81 0 1 0 -131.81 307.84M-136.44 307.84A62.44 62.44 0 1 0 -11.56 307.84A62.44 62.44 0 1 0 -136.44 307.84M-141.06 307.84A67.06 67.06 0 1 0 -6.94 307.84A67.06 67.06 0 1 0 -141.06 307.84M-145.69 307.84A71.69 71.69 0 1 0 -2.31 307.84A71.69 71.69 0 1 0 -145.69 307.84M-74 307.84L0 307.84M-74 307.84L-3 328.69M-74 307.84L-11.75 347.85M-74 307.84L-25.54 363.77M-74 307.84L-43.26 375.15M-74 307.84L-63.47 381.09M-74 307.84L-84.53 381.09M-74 307.84L-104.74 375.15M-74 307.84L-122.46 363.77M-74 307.84L-136.25 347.85M-74 307.84L-145 328.69M-74 307.84L-148 307.84M-74 307.84L-145 286.99M-74 307.84L-136.25 267.83M-74 307.84L-122.46 251.91M-74 307.84L-104.74 240.53M-74 307.84L-84.53 234.59M-74 307.84L-63.47 234.59M-74 307.84L-43.26 240.53M-74 307.84L-25.54 251.91M-74 307.84L-11.75 267.83M-74 307.84L-3 286.99" fill="none" stroke="#020202" stroke-width="0.92"/><circle cx="32.56" cy="307.84" r="74" fill="#e4e4e4" stroke="none"/><path d="M27.94 307.84A4.63 4.63 0 1 0 37.19 307.84A4.63 4.63 0 1 0 27.94 307.84M18.69 307.84A13.88 13.88 0 1 0 46.44 307.84A13.88 13.88 0 1 0 18.69 307.84M9.44 307.84A23.13 23.13 0 1 0 55.69 307.84A23.13 23.13 0 1 0 9.44 307.84M0.19 307.84A32.38 32.38 0 1 0 64.94 307.84A32.38 32.38 0 1 0 0.19 307.84M-9.06 307.84A41.63 41.63 0 1 0 74.19 307.84A41.63 41.63 0 1 0 -9.06 307.84M-18.31 307.84A50.88 50.88 0 1 0 83.44 307.84A50.88 50.88 0 1 0 -18.31 307.84M-27.56 307.84A60.13 60.13 0 1 0 92.69 307.84A60.13 60.13 0 1 0 -27.56 307.84M-36.81 307.84A69.38 69.38 0 1 0 101.94 307.84A69.38 69.38 0 1 0 -36.81 307.84" fill="none" stroke="#020202" stroke-width="6.11"/><circle cx="139.12" cy="307.84" r="74" fill="#a5abe9" stroke="none"/><path d="M136.81 307.84A2.31 2.31 0 1 0 141.43 307.84A2.31 2.31 0 1 0 136.81 307.84M132.18 307.84A6.94 6.94 0 1 0 146.06 307.84A6.94 6.94 0 1 0 132.18 307.84M127.56 307.84A11.56 11.56 0 1 0 150.68 307.84A11.56 11.56 0 1 0 127.56 307.84M122.93 307.84A16.19 16.19 0 1 0 155.31 307.84A16.19 16.19 0 1 0 122.93 307.84M118.31 307.84A20.81 20.81 0 1 0 159.93 307.84A20.81 20.81 0 1 0 118.31 307.84M113.68 307.84A25.44 25.44 0 1 0 164.56 307.84A25.44 25.44 0 1 0 113.68 307.84M109.06 307.84A30.06 30.06 0 1 0 169.18 307.84A30.06 30.06 0 1 0 109.06 307.84M104.43 307.84A34.69 34.69 0 1 0 173.81 307.84A34.69 34.69 0 1 0 104.43 307.84M99.81 307.84A39.31 39.31 0 1 0 178.43 307.84A39.31 39.31 0 1 0 99.81 307.84M95.18 307.84A43.94 43.94 0 1 0 183.06 307.84A43.94 43.94 0 1 0 95.18 307.84M90.56 307.84A48.56 48.56 0 1 0 187.68 307.84A48.56 48.56 0 1 0 90.56 307.84M85.93 307.84A53.19 53.19 0 1 0 192.31 307.84A53.19 53.19 0 1 0 85.93 307.84M81.31 307.84A57.81 57.81 0 1 0 196.93 307.84A57.81 57.81 0 1 0 81.31 307.84M76.68 307.84A62.44 62.44 0 1 0 201.56 307.84A62.44 62.44 0 1 0 76.68 307.84M72.06 307.84A67.06 67.06 0 1 0 206.18 307.84A67.06 67.06 0 1 0 72.06 307.84M67.43 307.84A71.69 71.69 0 1 0 210.81 307.84A71.69 71.69 0 1 0 67.43 307.84M139.12 307.84L213.12 307.84M139.12 307.84L210.12 328.69M139.12 307.84L201.37 347.85M139.12 307.84L187.58 363.77M139.12 307.84L169.86 375.15M139.12 307.84L149.65 381.09M139.12 307.84L128.59 381.09M139.12 307.84L108.38 375.15M139.12 307.84L90.66 363.77M139.12 307.84L76.87 347.85M139.12 307.84L68.12 328.69M139.12 307.84L65.12 307.84M139.12 307.84L68.12 286.99M139.12 307.84L76.87 267.83M139.12 307.84L90.66 251.91M139.12 307.84L108.38 240.53M139.12 307.84L128.59 234.59M139.12 307.84L149.65 234.59M139.12 307.84L169.86 240.53M139.12 307.84L187.58 251.91M139.12 307.84L201.37 267.83M139.12 307.84L210.12 286.99" fill="none" stroke="#020202" stroke-width="0.92"/><circle cx="245.68" cy="307.84" r="74" fill="#e4e4e4" stroke="none"/><path d="M241.06 307.84A4.63 4.63 0 1 0 250.31 307.84A4.63 4.63 0 1 0 241.06 307.84M231.81 307.84A13.88 13.88 0 1 0 259.56 307.84A13.88 13.88 0 1 0 231.81 307.84M222.56 307.84A23.13 23.13 0 1 0 268.81 307.84A23.13 23.13 0 1 0 222.56 307.84M213.31 307.84A32.38 32.38 0 1 0 278.06 307.84A32.38 32.38 0 1 0 213.31 307.84M204.06 307.84A41.63 41.63 0 1 0 287.31 307.84A41.63 41.63 0 1 0 204.06 307.84M194.81 307.84A50.88 50.88 0 1 0 296.56 307.84A50.88 50.88 0 1 0 194.81 307.84M185.56 307.84A60.13 60.13 0 1 0 305.81 307.84A60.13 60.13 0 1 0 185.56 307.84M176.31 307.84A69.38 69.38 0 1 0 315.06 307.84A69.38 69.38 0 1 0 176.31 307.84" fill="none" stroke="#020202" stroke-width="6.11"/><circle cx="-20.72" cy="371.48" r="74" fill="#a5abe9" stroke="none"/><path d="M-23.03 371.48A2.31 2.31 0 1 0 -18.41 371.48A2.31 2.31 0 1 0 -23.03 371.48M-27.66 371.48A6.94 6.94 0 1 0 -13.78 371.48A6.94 6.94 0 1 0 -27.66 371.48M-32.28 371.48A11.56 11.56 0 1 0 -9.16 371.48A11.56 11.56 0 1 0 -32.28 371.48M-36.91 371.48A16.19 16.19 0 1 0 -4.53 371.48A16.19 16.19 0 1 0 -36.91 371.48M-41.53 371.48A20.81 20.81 0 1 0 0.09 371.48A20.81 20.81 0 1 0 -41.53 371.48M-46.16 371.48A25.44 25.44 0 1 0 4.72 371.48A25.44 25.44 0 1 0 -46.16 371.48M-50.78 371.48A30.06 30.06 0 1 0 9.34 371.48A30.06 30.06 0 1 0 -50.78 371.48M-55.41 371.48A34.69 34.69 0 1 0 13.97 371.48A34.69 34.69 0 1 0 -55.41 371.48M-60.03 371.48A39.31 39.31 0 1 0 18.59 371.48A39.31 39.31 0 1 0 -60.03 371.48M-64.66 371.48A43.94 43.94 0 1 0 23.22 371.48A43.94 43.94 0 1 0 -64.66 371.48M-69.28 371.48A48.56 48.56 0 1 0 27.84 371.48A48.56 48.56 0 1 0 -69.28 371.48M-73.91 371.48A53.19 53.19 0 1 0 32.47 371.48A53.19 53.19 0 1 0 -73.91 371.48M-78.53 371.48A57.81 57.81 0 1 0 37.09 371.48A57.81 57.81 0 1 0 -78.53 371.48M-83.16 371.48A62.44 62.44 0 1 0 41.72 371.48A62.44 62.44 0 1 0 -83.16 371.48M-87.78 371.48A67.06 67.06 0 1 0 46.34 371.48A67.06 67.06 0 1 0 -87.78 371.48M-92.41 371.48A71.69 71.69 0 1 0 50.97 371.48A71.69 71.69 0 1 0 -92.41 371.48M-20.72 371.48L53.28 371.48M-20.72 371.48L50.28 392.33M-20.72 371.48L41.53 411.49M-20.72 371.48L27.74 427.41M-20.72 371.48L10.02 438.79M-20.72 371.48L-10.19 444.73M-20.72 371.48L-31.25 444.73M-20.72 371.48L-51.46 438.79M-20.72 371.48L-69.18 427.41M-20.72 371.48L-82.97 411.49M-20.72 371.48L-91.72 392.33M-20.72 371.48L-94.72 371.48M-20.72 371.48L-91.72 350.63M-20.72 371.48L-82.97 331.47M-20.72 371.48L-69.18 315.55M-20.72 371.48L-51.46 304.17M-20.72 371.48L-31.25 298.23M-20.72 371.48L-10.19 298.23M-20.72 371.48L10.02 304.17M-20.72 371.48L27.74 315.55M-20.72 371.48L41.53 331.47M-20.72 371.48L50.28 350.63" fill="none" stroke="#020202" stroke-width="0.92"/><circle cx="85.84" cy="371.48" r="74" fill="#a5abe9" stroke="none"/><path d="M83.53 371.48A2.31 2.31 0 1 0 88.15 371.48A2.31 2.31 0 1 0 83.53 371.48M78.9 371.48A6.94 6.94 0 1 0 92.78 371.48A6.94 6.94 0 1 0 78.9 371.48M74.28 371.48A11.56 11.56 0 1 0 97.4 371.48A11.56 11.56 0 1 0 74.28 371.48M69.65 371.48A16.19 16.19 0 1 0 102.03 371.48A16.19 16.19 0 1 0 69.65 371.48M65.03 371.48A20.81 20.81 0 1 0 106.65 371.48A20.81 20.81 0 1 0 65.03 371.48M60.4 371.48A25.44 25.44 0 1 0 111.28 371.48A25.44 25.44 0 1 0 60.4 371.48M55.78 371.48A30.06 30.06 0 1 0 115.9 371.48A30.06 30.06 0 1 0 55.78 371.48M51.15 371.48A34.69 34.69 0 1 0 120.53 371.48A34.69 34.69 0 1 0 51.15 371.48M46.53 371.48A39.31 39.31 0 1 0 125.15 371.48A39.31 39.31 0 1 0 46.53 371.48M41.9 371.48A43.94 43.94 0 1 0 129.78 371.48A43.94 43.94 0 1 0 41.9 371.48M37.28 371.48A48.56 48.56 0 1 0 134.4 371.48A48.56 48.56 0 1 0 37.28 371.48M32.65 371.48A53.19 53.19 0 1 0 139.03 371.48A53.19 53.19 0 1 0 32.65 371.48M28.03 371.48A57.81 57.81 0 1 0 143.65 371.48A57.81 57.81 0 1 0 28.03 371.48M23.4 371.48A62.44 62.44 0 1 0 148.28 371.48A62.44 62.44 0 1 0 23.4 371.48M18.78 371.48A67.06 67.06 0 1 0 152.9 371.48A67.06 67.06 0 1 0 18.78 371.48M14.15 371.48A71.69 71.69 0 1 0 157.53 371.48A71.69 71.69 0 1 0 14.15 371.48M85.84 371.48L159.84 371.48M85.84 371.48L156.84 392.33M85.84 371.48L148.09 411.49M85.84 371.48L134.3 427.41M85.84 371.48L116.58 438.79M85.84 371.48L96.37 444.73M85.84 371.48L75.31 444.73M85.84 371.48L55.1 438.79M85.84 371.48L37.38 427.41M85.84 371.48L23.59 411.49M85.84 371.48L14.84 392.33M85.84 371.48L11.84 371.48M85.84 371.48L14.84 350.63M85.84 371.48L23.59 331.47M85.84 371.48L37.38 315.55M85.84 371.48L55.1 304.17M85.84 371.48L75.31 298.23M85.84 371.48L96.37 298.23M85.84 371.48L116.58 304.17M85.84 371.48L134.3 315.55M85.84 371.48L148.09 331.47M85.84 371.48L156.84 350.63" fill="none" stroke="#020202" stroke-width="0.92"/><circle cx="192.4" cy="371.48" r="74" fill="#e4e4e4" stroke="none"/><path d="M187.78 371.48A4.63 4.63 0 1 0 197.03 371.48A4.63 4.63 0 1 0 187.78 371.48M178.53 371.48A13.88 13.88 0 1 0 206.28 371.48A13.88 13.88 0 1 0 178.53 371.48M169.28 371.48A23.13 23.13 0 1 0 215.53 371.48A23.13 23.13 0 1 0 169.28 371.48M160.03 371.48A32.38 32.38 0 1 0 224.78 371.48A32.38 32.38 0 1 0 160.03 371.48M150.78 371.48A41.63 41.63 0 1 0 234.03 371.48A41.63 41.63 0 1 0 150.78 371.48M141.53 371.48A50.88 50.88 0 1 0 243.28 371.48A50.88 50.88 0 1 0 141.53 371.48M132.28 371.48A60.13 60.13 0 1 0 252.53 371.48A60.13 60.13 0 1 0 132.28 371.48M123.03 371.48A69.38 69.38 0 1 0 261.77 371.48A69.38 69.38 0 1 0 123.03 371.48" fill="none" stroke="#020202" stroke-width="6.11"/><circle cx="298.96" cy="371.48" r="74" fill="#e4e4e4" stroke="none"/><path d="M294.34 371.48A4.63 4.63 0 1 0 303.59 371.48A4.63 4.63 0 1 0 294.34 371.48M285.09 371.48A13.88 13.88 0 1 0 312.84 371.48A13.88 13.88 0 1 0 285.09 371.48M275.84 371.48A23.13 23.13 0 1 0 322.09 371.48A23.13 23.13 0 1 0 275.84 371.48M266.59 371.48A32.38 32.38 0 1 0 331.34 371.48A32.38 32.38 0 1 0 266.59 371.48M257.34 371.48A41.63 41.63 0 1 0 340.59 371.48A41.63 41.63 0 1 0 257.34 371.48M248.09 371.48A50.88 50.88 0 1 0 349.84 371.48A50.88 50.88 0 1 0 248.09 371.48M238.84 371.48A60.13 60.13 0 1 0 359.09 371.48A60.13 60.13 0 1 0 238.84 371.48M229.59 371.48A69.38 69.38 0 1 0 368.34 371.48A69.38 69.38 0 1 0 229.59 371.48" fill="none" stroke="#020202" stroke-width="6.11"/><circle cx="-74" cy="435.12" r="74" fill="#a5abe9" stroke="none"/><path d="M-76.31 435.12A2.31 2.31 0 1 0 -71.69 435.12A2.31 2.31 0 1 0 -76.31 435.12M-80.94 435.12A6.94 6.94 0 1 0 -67.06 435.12A6.94 6.94 0 1 0 -80.94 435.12M-85.56 435.12A11.56 11.56 0 1 0 -62.44 435.12A11.56 11.56 0 1 0 -85.56 435.12M-90.19 435.12A16.19 16.19 0 1 0 -57.81 435.12A16.19 16.19 0 1 0 -90.19 435.12M-94.81 435.12A20.81 20.81 0 1 0 -53.19 435.12A20.81 20.81 0 1 0 -94.81 435.12M-99.44 435.12A25.44 25.44 0 1 0 -48.56 435.12A25.44 25.44 0 1 0 -99.44 435.12M-104.06 435.12A30.06 30.06 0 1 0 -43.94 435.12A30.06 30.06 0 1 0 -104.06 435.12M-108.69 435.12A34.69 34.69 0 1 0 -39.31 435.12A34.69 34.69 0 1 0 -108.69 435.12M-113.31 435.12A39.31 39.31 0 1 0 -34.69 435.12A39.31 39.31 0 1 0 -113.31 435.12M-117.94 435.12A43.94 43.94 0 1 0 -30.06 435.12A43.94 43.94 0 1 0 -117.94 435.12M-122.56 435.12A48.56 48.56 0 1 0 -25.44 435.12A48.56 48.56 0 1 0 -122.56 435.12M-127.19 435.12A53.19 53.19 0 1 0 -20.81 435.12A53.19 53.19 0 1 0 -127.19 435.12M-131.81 435.12A57.81 57.81 0 1 0 -16.19 435.12A57.81 57.81 0 1 0 -131.81 435.12M-136.44 435.12A62.44 62.44 0 1 0 -11.56 435.12A62.44 62.44 0 1 0 -136.44 435.12M-141.06 435.12A67.06 67.06 0 1 0 -6.94 435.12A67.06 67.06 0 1 0 -141.06 435.12M-145.69 435.12A71.69 71.69 0 1 0 -2.31 435.12A71.69 71.69 0 1 0 -145.69 435.12M-74 435.12L0 435.12M-74 435.12L-3 455.97M-74 435.12L-11.75 475.13M-74 435.12L-25.54 491.05M-74 435.12L-43.26 502.43M-74 435.12L-63.47 508.37M-74 435.12L-84.53 508.37M-74 435.12L-104.74 502.43M-74 435.12L-122.46 491.05M-74 435.12L-136.25 475.13M-74 435.12L-145 455.97M-74 435.12L-148 435.12M-74 435.12L-145 414.27M-74 435.12L-136.25 395.11M-74 435.12L-122.46 379.19M-74 435.12L-104.74 367.81M-74 435.12L-84.53 361.87M-74 435.12L-63.47 361.87M-74 435.12L-43.26 367.81M-74 435.12L-25.54 379.19M-74 435.12L-11.75 395.11M-74 435.12L-3 414.27" fill="none" stroke="#020202" stroke-width="0.92"/><circle cx="32.56" cy="435.12" r="74" fill="#a5abe9" stroke="none"/><path d="M30.25 435.12A2.31 2.31 0 1 0 34.87 435.12A2.31 2.31 0 1 0 30.25 435.12M25.62 435.12A6.94 6.94 0 1 0 39.5 435.12A6.94 6.94 0 1 0 25.62 435.12M21 435.12A11.56 11.56 0 1 0 44.12 435.12A11.56 11.56 0 1 0 21 435.12M16.37 435.12A16.19 16.19 0 1 0 48.75 435.12A16.19 16.19 0 1 0 16.37 435.12M11.75 435.12A20.81 20.81 0 1 0 53.37 435.12A20.81 20.81 0 1 0 11.75 435.12M7.12 435.12A25.44 25.44 0 1 0 58 435.12A25.44 25.44 0 1 0 7.12 435.12M2.5 435.12A30.06 30.06 0 1 0 62.62 435.12A30.06 30.06 0 1 0 2.5 435.12M-2.13 435.12A34.69 34.69 0 1 0 67.25 435.12A34.69 34.69 0 1 0 -2.13 435.12M-6.75 435.12A39.31 39.31 0 1 0 71.87 435.12A39.31 39.31 0 1 0 -6.75 435.12M-11.38 435.12A43.94 43.94 0 1 0 76.5 435.12A43.94 43.94 0 1 0 -11.38 435.12M-16 435.12A48.56 48.56 0 1 0 81.12 435.12A48.56 48.56 0 1 0 -16 435.12M-20.63 435.12A53.19 53.19 0 1 0 85.75 435.12A53.19 53.19 0 1 0 -20.63 435.12M-25.25 435.12A57.81 57.81 0 1 0 90.37 435.12A57.81 57.81 0 1 0 -25.25 435.12M-29.88 435.12A62.44 62.44 0 1 0 95 435.12A62.44 62.44 0 1 0 -29.88 435.12M-34.5 435.12A67.06 67.06 0 1 0 99.62 435.12A67.06 67.06 0 1 0 -34.5 435.12M-39.13 435.12A71.69 71.69 0 1 0 104.25 435.12A71.69 71.69 0 1 0 -39.13 435.12M32.56 435.12L106.56 435.12M32.56 435.12L103.56 455.97M32.56 435.12L94.81 475.13M32.56 435.12L81.02 491.05M32.56 435.12L63.3 502.43M32.56 435.12L43.09 508.37M32.56 435.12L22.03 508.37M32.56 435.12L1.82 502.43M32.56 435.12L-15.9 491.05M32.56 435.12L-29.69 475.13M32.56 435.12L-38.44 455.97M32.56 435.12L-41.44 435.12M32.56 435.12L-38.44 414.27M32.56 435.12L-29.69 395.11M32.56 435.12L-15.9 379.19M32.56 435.12L1.82 367.81M32.56 435.12L22.03 361.87M32.56 435.12L43.09 361.87M32.56 435.12L63.3 367.81M32.56 435.12L81.02 379.19M32.56 435.12L94.81 395.11M32.56 435.12L103.56 414.27" fill="none" stroke="#020202" stroke-width="0.92"/><circle cx="139.12" cy="435.12" r="74" fill="#e4e4e4" stroke="none"/><path d="M134.5 435.12A4.63 4.63 0 1 0 143.75 435.12A4.63 4.63 0 1 0 134.5 435.12M125.25 435.12A13.88 13.88 0 1 0 153 435.12A13.88 13.88 0 1 0 125.25 435.12M116 435.12A23.13 23.13 0 1 0 162.25 435.12A23.13 23.13 0 1 0 116 435.12M106.75 435.12A32.38 32.38 0 1 0 171.5 435.12A32.38 32.38 0 1 0 106.75 435.12M97.5 435.12A41.63 41.63 0 1 0 180.75 435.12A41.63 41.63 0 1 0 97.5 435.12M88.25 435.12A50.88 50.88 0 1 0 190 435.12A50.88 50.88 0 1 0 88.25 435.12M79 435.12A60.13 60.13 0 1 0 199.25 435.12A60.13 60.13 0 1 0 79 435.12M69.75 435.12A69.38 69.38 0 1 0 208.5 435.12A69.38 69.38 0 1 0 69.75 435.12" fill="none" stroke="#020202" stroke-width="6.11"/><circle cx="245.68" cy="435.12" r="74" fill="#e4e4e4" stroke="none"/><path d="M241.06 435.12A4.63 4.63 0 1 0 250.31 435.12A4.63 4.63 0 1 0 241.06 435.12M231.81 435.12A13.88 13.88 0 1 0 259.56 435.12A13.88 13.88 0 1 0 231.81 435.12M222.56 435.12A23.13 23.13 0 1 0 268.81 435.12A23.13 23.13 0 1 0 222.56 435.12M213.31 435.12A32.38 32.38 0 1 0 278.06 435.12A32.38 32.38 0 1 0 213.31 435.12M204.06 435.12A41.63 41.63 0 1 0 287.31 435.12A41.63 41.63 0 1 0 204.06 435.12M194.81 435.12A50.88 50.88 0 1 0 296.56 435.12A50.88 50.88 0 1 0 194.81 435.12M185.56 435.12A60.13 60.13 0 1 0 305.81 435.12A60.13 60.13 0 1 0 185.56 435.12M176.31 435.12A69.38 69.38 0 1 0 315.06 435.12A69.38 69.38 0 1 0 176.31 435.12" fill="none" stroke="#020202" stroke-width="6.11"/></g></svg>